<svg xmlns="http://www.w3.org/2000/svg" viewBox="0 0 125 152">
  <path style="fill: transparent" d="M0 9.4v78.9c0 10.7 3 17.5 5.5 21.4 7.7 12.4 19.7 13.7 39.1 27.4C52.9 143 59 148.6 62.5 152c4.6-4.3 11.6-10.4 21.1-16.6 17.6-11.6 27.7-13.3 35-24.2 3-4.5 6.3-11.7 6.4-22.9V9.4c-9.2-2.8-20.1-5.5-32.5-7.2C81.4.5 71.3 0 62.5 0c-9.1 0-19.6.6-31.1 2.3C19.4 4.1 8.9 6.7 0 9.4z"/>
  <path fill="#ffffff" d="M43.5 16.1v112.7l1.9 1c5.9 3.1 11.6 6.5 17.1 10.3 5.5-3.8 11.2-7.3 17.1-10.3l1.9-1V16.1c-12.6-1.3-25.4-1.3-38 0zm19 72.2z"/>
  <path fill="#e93438" d="M43.5 16.1c-11.5 1.1-22.9 3.1-34 6.2v66c0 22.2 15.5 30.5 33.4 40.2l.6.3V16.1zM115.5 22.3c-11.1-3.1-22.5-5.1-34-6.2v112.7l.6-.3c17.9-9.7 33.4-18 33.4-40.1V22.3z"/>
  <path fill="#ddc35e" d="M121.2 23.9l-1.6-.5v64.8c0 25.7-18.8 34.6-38 45.1-6.7 3.4-13 7.4-19 11.8-6-4.4-12.4-8.4-19-11.8-19.2-10.4-38-19.4-38-45.1V23.4l-1.6.5-4 1.2v63.2C0 116 20.4 127 38.4 136.7l2.5 1.4c6.4 3.3 12.5 7.1 18.3 11.3l3.3 2.6 3.3-2.6c5.8-4.3 11.9-8.1 18.3-11.3l2.5-1.4c18-9.7 38.4-20.7 38.4-48.4V25.1l-3.8-1.2z"/>
  <path fill="#ffffff" d="M105.5 71.6l-3.2-11.8c-.1-.3-.2-.7-.2-1 0-.2.1-.4.2-.6h-7.6c.1.2.2.4.2.6 0 .3-.1.7-.2 1l-3.2 11.8c-1.1 4-1.6 5.7-2.6 6.7h6.8c-.6-.4-.9-1.1-.9-1.8.1-1.2.4-2.4.7-3.6l.2-.9h5.6l.2.9c.3 1.2.6 2.4.7 3.6 0 .7-.3 1.4-.9 1.8h6.8c-1-1-1.5-2.7-2.6-6.7zm-7-2.8h-2l1.6-6.9c.2-.7.3-1.4.4-2.1 0 .1.1.7.4 2.1l1.6 6.9h-2zM36.1 68.1c0-8.2.1-8.3.7-9.4l.3-.5s-1.1.1-4 .1c-2.7 0-3-.1-3-.1l-3 8.1c-.2.4-.3.8-.5 1.3-.1-.4-.3-.9-.5-1.3l-3-8.1s-.3.1-3 .1c-3 0-4-.1-4-.1l.3.5c.6 1.1.7 1.2.7 9.4 0 8.4-.1 8.6-.7 9.7l-.4.5s1.1-.1 3-.1 2.9.1 2.9.1l-.3-.5c-.6-1.1-.7-1.2-.7-9.4v-4.6c.4 1.3.9 2.6 1.5 3.9l4.1 9 4.1-9c.6-1.3 1-2.5 1.4-3.9v4.6c0 8.2-.1 8.3-.7 9.4l-.3.5s1-.1 2.9-.1 3 .1 3 .1l-.3-.5c-.3-1-.5-1.2-.5-9.7z"/>
  <path fill="#e93438" d="M68.1 68.3l8.2 7.9-11-3.1-2.8 11-2.8-11-11 3.1 8.2-7.9-8.2-8 11 3.1 2.8-11 2.8 11 11-3.1z"/>
  <path fill="#ddc35e" d="M125 18.2V9.4c-4.6-1.4-9.3-2.7-14.1-3.8v7.1c2.3.5 4.6 1.1 6.8 1.7v1.7c-2.1-.6-4.3-1.1-6.4-1.6l-.4-.1-4.2-.9V4.6c-4.7-1-9.4-1.8-14.2-2.5v7.1c2.3.3 4.6.7 6.9 1.1V12c-2.2-.4-4.3-.7-6.5-1h-.4l-4.2-.6V1.6C83.6 1 78.8.6 74 .3v7.1c2.3.1 4.7.3 7 .5v1.7c-2.2-.2-4.4-.3-6.5-.5H74L69.7 9V.1C64.9 0 60.1 0 55.3.1v7.1c2.3-.1 4.7-.1 7-.1v1.7c-2.2 0-4.4 0-6.6.1h-.5c-1.4 0-2.8.1-4.2.2V.3c-4.7.3-9.5.7-14.3 1.3v7.1c2.3-.3 4.7-.5 7-.7v1.7c-2.2.2-4.4.4-6.5.7l-.4.1-4.2.6v-9c-4.9.7-9.6 1.5-14.4 2.5v7.1c2.3-.5 4.6-.9 6.9-1.3v1.7c-2.2.4-4.3.8-6.5 1.3l-.4.1c-1.4.3-2.8.6-4.1.9V5.6C9.4 6.7 4.7 7.9 0 9.4v7.1c2.3-.7 4.5-1.3 6.8-2v1.7c-2.3.6-4.5 1.3-6.8 2v2.7c2.3-.7 4.5-1.3 6.8-2l.4-.1 2.3-.6v-7.1l-2.3.6-.4.1c-1.4.4-2.8.8-4.1 1.2v-1.8c2.9-.8 5.8-1.6 8.7-2.3v8.9c2.3-.6 4.6-1.1 6.9-1.6l.4-.1c2.1-.4 4.3-.9 6.5-1.3l.4-.1 2.3-.4v-7c-.8.1-1.5.3-2.3.4l-.4.1c-1.5.2-2.9.4-4.2.7V6.8c2.9-.6 5.8-1.1 8.8-1.6v8.9c2.3-.4 4.6-.7 6.9-1l.4-.1c2.2-.3 4.4-.5 6.5-.7l2.8-.2V5l-2.3.2h-.4c-1.4.1-2.8.3-4.2.4V3.9c2.9-.3 5.9-.6 8.9-.8V12c2.3-.1 4.7-.3 7-.4h.4c2.2-.1 4.4-.1 6.6-.1H65.1v-7h-2.8c-1.4 0-2.8 0-4.2.1V2.7c3-.1 5.9-.1 8.9 0v8.9c2.3.1 4.7.1 7 .3h.4c2.2.1 4.4.3 6.5.5h.4l2.3.2V5.5l-2.4-.2H81c-1.5-.1-2.9-.3-4.3-.3V3.2c3 .2 5.9.5 8.9.8v8.9c2.3.3 4.6.5 7 .9l.4.1c2.2.3 4.3.7 6.5 1l.4.1 2.3.4V8.2l-2.3-.4-.5-.1c-1.4-.3-2.8-.5-4.2-.7V5.2c2.9.5 5.9 1 8.8 1.6v8.9l6.9 1.5.4.1c2.1.5 4.3 1 6.4 1.6l.4.1 2.3.6v-7.1c-.8-.2-1.5-.4-2.3-.6l-.4-.1c-1.4-.4-2.7-.7-4.1-1.1V8.9c2.9.7 5.8 1.5 8.7 2.3v8.9l2.7.8v-2.7z"/>
</svg>