<svg xmlns="http://www.w3.org/2000/svg" viewBox="0 0 512 512" aria-hidden="true">
  <circle cx="137" cy="256" r="70" fill="#ff8000"/>
  <circle cx="256" cy="256" r="70" fill="#00e054"/>
  <circle cx="375" cy="256" r="70" fill="#40bcf4"/>
  <path fill="#fff" d="M315.3 219.1c6.7 10.7 10.6 23.4 10.6 37 0 13.6-3.9 26.3-10.6 37-6.7-10.7-10.6-23.4-10.6-37 0-13.5 3.9-26.2 10.6-37z"/>
  <path fill="#fff" d="M196.3 219.1c6.7 10.7 10.6 23.4 10.6 37 0 13.6-3.9 26.3-10.6 37-6.7-10.7-10.6-23.4-10.6-37 0-13.5 3.9-26.2 10.6-37z"/>
</svg>