<svg width="140" height="54" viewBox="0 0 140 54" xmlns="http://www.w3.org/2000/svg"><g fill="none"><path d="M7.313 28.47c0-.812.594-1.45 1.357-1.45.791 0 1.385.638 1.385 1.45v14.538c0 .783-.594 1.421-1.385 1.421-.763 0-1.357-.637-1.357-1.421V28.47zm21.316 0c0-.812.593-1.45 1.357-1.45.791 0 1.385.638 1.385 1.45v14.538c0 .783-.594 1.421-1.385 1.421-.764 0-1.358-.637-1.358-1.421V28.47zm28.303 15.67l.593-.407c-2.94-.29-5.456-2.437-5.456-8.385 0-5.543 3.732-8.444 7.831-8.444 1.187 0 2.46.232 3.731.551 1.188.29 1.668.522 1.668 2.38v14.189c0 3.684-.254 9.923-6.756 9.923-3.421 0-5.201-1.915-5.201-4.642 0-2.612 1.865-3.976 3.59-5.165zm5.851-14.48c-.904-.29-1.724-.493-3.222-.493-2.827 0-4.778 2.234-4.778 6.441 0 2.09.141 6.18 4.128 6.18 2.29 0 3.872-2.61 3.872-5.164V29.66zm-.028 15.64v-3.54l-3.675 3.22c-1.668 1.451-3.194 2.787-3.194 4.325 0 1.798 1.187 2.582 2.883 2.582 3.11 0 3.986-2.843 3.986-6.587zm74.328-23.68c0-.813.595-1.45 1.358-1.45.791 0 1.385.637 1.385 1.45v21.607c0 .784-.594 1.422-1.385 1.422-.763 0-1.358-.638-1.358-1.422V21.62zM0 21.62c0-.813.594-1.45 1.357-1.45.791 0 1.385.637 1.385 1.45v21.607c0 .784-.594 1.422-1.385 1.422C.594 44.649 0 44.01 0 43.227V21.62zm22.985 6.327c.198-.523.65-.87 1.216-.87.961 0 1.64.783 1.244 1.885l-5.173 14.306c-.226.638-.537 1.16-1.216 1.16-.678 0-.933-.493-1.187-1.16l-5.117-14.19c-.396-1.074.113-2.002 1.187-2.002.594 0 1.046.377 1.244.9l3.93 10.94 3.872-10.97zm22.927 5.513c0-2.321-.763-4.237-3.364-4.237-2.374 0-4.268 2.495-4.268 5.456v8.356c0 .784-.595 1.422-1.385 1.422-.764 0-1.358-.638-1.358-1.422V28.498c0-.812.538-1.45 1.3-1.45.792 0 1.33.638 1.33 1.45v1.132c1.159-1.973 2.94-2.699 4.862-2.699 3.533 0 5.626 1.944 5.626 5.833v10.271c0 .784-.594 1.422-1.385 1.422-.764 0-1.358-.638-1.358-1.422V33.46zm23.069 7.573c.339 0 .593.145.82.261.988.552 2.148 1.074 3.73 1.074 1.754 0 3.082-.842 3.082-2.698 0-1.858-1.696-2.467-3.534-3.076-2.232-.754-4.664-1.596-4.664-4.76 0-3.394 2.63-4.903 5.513-4.903 1.81 0 3.25.493 4.325 1.19.31.174.707.551.707 1.102 0 .64-.424 1.161-1.046 1.161-.311 0-.65-.174-.933-.348-.933-.58-2.007-.841-3.166-.841-1.329 0-2.828.522-2.828 2.379 0 1.712 1.725 2.35 3.478 2.93 2.177.755 4.749 1.858 4.749 5.02 0 3.337-2.29 5.05-5.654 5.05-2.375 0-3.816-.698-4.862-1.277-.424-.233-.764-.581-.764-1.103 0-.638.424-1.161 1.047-1.161zm26.856-5.745c0 6.558-3.364 9.285-7.463 9.285-4.184 0-6.927-2.872-6.927-8.937 0-6.964 4.212-8.705 7.464-8.705 2.261 0 6.925.726 6.925 8.357zm-7.124-6.093c-2.968 0-4.523 2.582-4.523 6.122 0 3.221.791 7.051 4.41 7.051 2.968 0 4.438-2.96 4.438-6.528 0-3.918-1.272-6.645-4.325-6.645zm19.901 12.187c.396-.232.877-.494 1.33-.494.536 0 1.017.348 1.017 1.103 0 .435-.198.783-.621 1.073-1.132.784-2.97 1.51-5.033 1.51-4.664 0-7.18-3.077-7.18-8.821 0-6.849 4.07-8.822 7.152-8.822 1.724 0 3.449.406 5.088 1.8.283.231.452.609.452.986 0 .667-.452 1.248-1.13 1.248-.368 0-.792-.233-1.075-.465-1.074-.928-2.007-1.218-3.307-1.218-2.544 0-4.438 1.972-4.438 6.354 0 3.86 1.328 6.587 4.692 6.587.99 0 1.98-.203 3.053-.841zm4.58-12.884c0-.812.594-1.45 1.357-1.45.792 0 1.386.638 1.386 1.45v14.537c0 .784-.594 1.422-1.386 1.422-.763 0-1.356-.638-1.356-1.422V28.498zM130.27 41.44c-.906 1.653-2.375 3.133-5.09 3.133-4.014 0-5.936-3.22-5.936-8.095 0-5.949 2.77-9.547 8.227-9.547.848 0 2.6.232 4.042.638 1.216.349 1.357.987 1.357 2.206v13.26c0 .784-.509 1.422-1.3 1.422-.764 0-1.3-.638-1.3-1.422V41.44zm-.114-4.846v-6.877c-.622-.261-1.866-.522-3.11-.522-3.788 0-5.088 3.191-5.088 7.37 0 2.843.792 5.86 3.336 5.86 3.335 0 4.862-3.568 4.862-5.831z" fill="#FFF"></path><path d="M127.374 0c-1.832 0-3.499.534-4.69 1.783-.439.46-.832.938-1.175 1.43 1.144.25 2.151.851 2.698 2.03.63 1.289.74 4.803-.392 6.72.367.402.652.885.873 1.39.388.884.872 2.103.922 3.298.875.476 1.799.867 2.38 1.011.841.209 1.707.29 2.562.29.668 0 1.329-.05 1.965-.126 1.851-.223 3.524-1.007 4.817-2.232 2.373-2.245 3.5-6.084 1.35-9.448C136.506 2.744 131.52 0 127.373 0" fill="#E9BA2C"></path><path d="M120.047 3.067c-.874 0-1.75.135-2.504.32-2.571.601-3.272 1.861-3.213 4.501.04 2.041 1.029 4.081 2.608 5.164.313-.375.664-.71 1.047-.991.742-.546 1.657-.984 2.593-1.138-1.157-2.802-.66-5.424.93-7.71a6.864 6.864 0 0 0-1.461-.146" fill="#5EB8DD"></path><path d="M121.51 3.213c-1.591 2.286-2.089 4.907-.932 7.71a4.35 4.35 0 0 1 .706-.06c.577 0 1.148.126 1.676.417.326.18.61.413.855.683 1.133-1.917 1.022-5.431.392-6.72-.547-1.179-1.554-1.78-2.698-2.03" fill="#568626"></path><path d="M116.938 13.052c-1.23 1.472-1.867 3.555-1.45 5.358v.003c.08-.005.159-.008.238-.008.742 0 1.48.224 1.817.95.186.381.291 1.201.173 1.955.798.455 1.587.692 2.375.692 1.563 0 3.122-.93 4.738-2.926.623-.705.816-1.559.78-2.425-.838-.456-1.632-.99-2.035-1.46a16.824 16.824 0 0 1-1.564-1.797c-.838.359-1.325.34-2.124.43a4.408 4.408 0 0 1-2.948-.773" fill="#EC008C"></path><path d="M123.815 11.963c-.237.402-.529.733-.882.96a8.866 8.866 0 0 1-.923.47c.443.595.963 1.194 1.564 1.798.403.47 1.197 1.004 2.035 1.46-.049-1.195-.533-2.414-.92-3.297-.222-.506-.507-.99-.874-1.391" fill="#D80018"></path><path d="M120.578 10.923c-.935.154-1.85.592-2.593 1.138a6.01 6.01 0 0 0-1.047.99 4.406 4.406 0 0 0 2.948.773c.8-.091 1.286-.071 2.124-.43a11.463 11.463 0 0 1-1.432-2.471" fill="#570079"></path><path d="M121.284 10.864c-.237 0-.472.02-.706.06.335.809.807 1.634 1.432 2.47.265-.114.566-.266.923-.471.353-.227.645-.558.882-.96a3.342 3.342 0 0 0-.855-.683 3.433 3.433 0 0 0-1.676-.416" fill="#500014"></path><path d="M115.488 18.413l-.024.002c-.281.019-.56.063-.835.13-1.124.262-1.43.814-1.404 1.968.024 1.302.935 2.604 2.24 2.604.063 0 .125-.003.189-.009.46-.052 1.01-.126 1.332-.394.5-.419.676-.725.73-1.405 0 0-.187-.107-.28-.166-1.084-.688-1.7-1.66-1.948-2.73" fill="#F1812D"></path><path d="M115.726 18.405c-.08 0-.159.003-.238.008.247 1.07.864 2.042 1.949 2.73.093.059.279.167.279.167.118-.754.013-1.574-.173-1.954-.338-.727-1.075-.95-1.817-.95" fill="#DF0019"></path><path d="M117.566 19.351c-.377-.812-1.254-.996-2.079-.94.247 1.07.864 2.043 1.95 2.731.093.06.186.115.279.168.118-.754.036-1.578-.15-1.959" fill="#CE143F"></path></g></svg>
