<svg xmlns="http://www.w3.org/2000/svg" viewBox="0 0 697.34 544.75"><defs><style>.cls-1,.cls-5{fill:#33bc33;}.cls-1,.cls-2,.cls-4{stroke:#092d33;stroke-width:15.06px;}.cls-1,.cls-2,.cls-3,.cls-4{stroke-linecap:round;stroke-linejoin:round;}.cls-2{fill:#092d33;}.cls-3{fill:#ffbdcb;stroke:#000;stroke-width:4.18px;}.cls-4{fill:#f8bccb;}</style></defs><g id="Layer_2" data-name="Layer 2"><g id="Layer_1-2" data-name="Layer 1"><polygon class="cls-1" points="107.5 304.51 7.53 304.51 22.59 251.46 7.53 198.41 107.5 198.41 107.5 304.51"/><polygon class="cls-2" points="107.5 304.51 46.14 238.84 46.14 132.74 107.5 198.41 107.5 304.51"/><polygon class="cls-1" points="589.84 304.51 689.81 304.51 674.75 251.46 689.81 198.41 589.84 198.41 589.84 304.51"/><polygon class="cls-2" points="589.84 304.51 651.2 238.84 651.2 132.74 589.84 198.41 589.84 304.51"/><g id="G-Cat_Color" data-name="G-Cat Color"><path class="cls-1" d="M228.89,61.19,73.64,9.78C61.87,5.09,48.8,8,48.8,16.29l25,100.47a413.84,413.84,0,0,1,.93,58.92L62.58,366.29c0,159.93,286.27,159.93,286.27,159.93s286.28,0,286.28-159.93L623,176a411.63,411.63,0,0,1,1-59.49L648.9,18.8c0-8.24-9.44-11.83-24.74-6.64l-158,49"/><path class="cls-1" d="M177.53,359.57a22.06,22.06,0,0,1-44.12,0"/><path class="cls-1" d="M564.29,359.57a22.06,22.06,0,1,1-44.12,0"/><path class="cls-3" d="M76.12,39.3a89,89,0,0,0,65.73,18.79L100.72,97.81,93.94,73.74"/><path class="cls-3" d="M621.58,39.3a89,89,0,0,1-65.73,18.79L597,97.81l6.78-24.07"/><path class="cls-1" d="M396.81,505.43a52.07,52.07,0,0,1-95.92,0"/><polyline class="cls-1" points="387.19 456.04 400.41 481.08 414.62 454.24"/><polyline class="cls-1" points="283.08 456.04 296.3 481.08 310.51 454.24"/><path class="cls-1" d="M162.56,80.14,187,73.34A531,531,0,0,1,276,56.63h0q22.68-2.21,45.44-3L306.93,29a1.76,1.76,0,0,1,1.7-2.66L349,34.5l-2.28-21.25c-.26-2.46,2.53-4.29,4.44-2.91,0,0,49.47,17.67,66.83,46.24l2.57.25A531.1,531.1,0,0,1,509.2,73.06l25.94,7.08"/><path class="cls-1" d="M244.74,403.89a52.06,52.06,0,1,0,104.11,0V363.7"/><path class="cls-1" d="M453,403.89a52.06,52.06,0,1,1-104.11,0V363.7"/><path class="cls-4" d="M348.85,353.06c23.24,0,42.17,1.41,42.17,14s-42.17,31.84-42.17,31.84-42.17-19.15-42.17-31.84S325.61,353.06,348.85,353.06Z"/></g><rect class="cls-1" x="46.5" y="132.74" width="604.7" height="106.1"/><rect class="cls-2" x="213.04" y="120.12" width="271.61" height="131.33" rx="65.67"/><path class="cls-5" d="M346.94,186.18c-.9,63.26-94.14,62.07-93.95-1.29.07-51.7,73.65-64.88,91.37-15.08H318.84C304.5,152.27,275.64,163,276.06,185c-.44,25.41,32.67,35.56,44.59,13.4H294.48v-18.3h52.2C346.81,182.18,346.94,184.25,346.94,186.18Z"/><path class="cls-5" d="M380.74,227.35C366.9,240.9,350.36,199.67,352,185.86a57.77,57.77,0,0,1,18.14-42.57c6.53-6.25,16.28,4.05,9.78,10.27-16.84,14.31-16.7,50.47,0,64.81A7,7,0,0,1,380.74,227.35Z"/><path class="cls-5" d="M393.46,209.09V182.85l-6.1,1.33-.53-15.38,24.3-5.3v45.59Z"/><path class="cls-5" d="M417.22,227.35a7,7,0,0,1,.83-9c16.69-14.34,16.83-50.5,0-64.81-6.5-6.19,3.25-16.56,9.78-10.27A57.77,57.77,0,0,1,446,185.86C447.6,199.69,431.07,240.88,417.22,227.35Z"/></g></g></svg>
