<svg xmlns="http://www.w3.org/2000/svg" viewBox="0 0 27 32">
  <path d="M18.3 13.2L14.2 4 16 0h10.1l-6 13.2h-1.8z" fill="#0093ea"/>
  <path fill="#57ade0" d="M0 0h10.1l6 13.2H6z"/>
  <g transform="translate(4 8)">
    <circle cx="10" cy="12" r="12" fill="#ffc120"/>
    <path d="M7.7 23.8l9.6-21.3C20.2 4.7 22 8.1 22 12c0 6.6-5.4 12-12 12-.8 0-1.5-.1-2.3-.2z" fill="#fbaa1a"/>
    <path d="M16 10.5c-.1-.3-.3-.5-.6-.5l-3.2-.5-1.5-3.1c-.1-.2-.4-.4-.7-.4-.3 0-.6.2-.7.4L7.9 9.5l-3.3.5c-.3 0-.5.2-.6.5-.1.3 0 .6.2.8l2.4 2.4-.6 3.4c0 .3.1.6.3.7.2.2.3.2.5.2.1 0 .2 0 .4-.1l2.9-1.6 2.9 1.6c0 .1.1.1.2.1.2 0 .3 0 .4-.1.2-.2.4-.5.3-.7l-.6-3.4 2.4-2.4c.3-.3.4-.6.3-.9z" fill="#ffefc7"/>
  </g>
</svg>
