<svg xmlns="http://www.w3.org/2000/svg" viewBox="0 0 32 32">
  <path d="M32 16c0-1.6-2.1-2.9-2.5-4.3-.5-1.5.4-3.7-.5-5-.9-1.3-3.3-1.1-4.6-2-1.3-.9-1.9-3.2-3.4-3.7s-3.4 1-5 1-3.5-1.5-4.9-1c-1.6.5-2.2 2.8-3.4 3.7-1.3.9-3.7.8-4.6 2-.9 1.2 0 3.5-.5 5C2.1 13.1 0 14.4 0 16c0 1.6 2.1 2.9 2.5 4.3.5 1.5-.4 3.7.5 5 .9 1.3 3.3 1.1 4.6 2 1.3.9 1.9 3.2 3.4 3.7s3.3-1.1 4.9-1.1c1.6 0 3.5 1.5 4.9 1.1 1.5-.5 2.1-2.8 3.4-3.7 1.3-.9 3.7-.8 4.6-2 .9-1.2 0-3.5.5-5 .6-1.4 2.7-2.7 2.7-4.3zm-9.7-3.7l-6 7.8c-.1.2-.3.3-.5.3s-.4 0-.5-.2l-4.7-3.9c-.3-.3-.3-.7-.1-1 .3-.3.7-.3 1-.1l4.1 3.4 5.5-7.2c.2-.3.7-.4 1-.1s.4.7.2 1z" fill-rule="evenodd" clip-rule="evenodd" fill="#53a318"/>
</svg>
