<svg width="100" height="66" viewBox="0 0 128 117.4"><title>American Association of Oral and Maxillofacial Surgeons</title><path d="M0 59.2c.7-.6 1.5-.5 2.2-.3.8.2 1.7.3 2.6.4.4 0 .8.1 1.2.1.7.1 1.4.3 2 .7.1-.2.2-.3.3-.5.1-.2.1-.4.1-.6.1-1.3.2-2.7.2-4 0-1 .1-2.1.1-3.1 0-.4-.2-.4-.5-.3-1.7 1-3.5.1-4.4-1 0-.1-.1-.1-.1-.2-.4-1-1.1-1.8-1.8-2.6-.4-.5-.8-1-1.1-1.7-.2-.4-.1-.6.4-.7.3-.1.6 0 .8.2.8.6 1.8.8 2.8 1 1.5.3 2.8.9 3.9 2 0 0 .1 0 .1.1.2-.2.3-.5.3-.8.1-1.7.3-3.5.4-5.2.1-.7 0-.8-.7-.7h-.1c-.7.3-1.3 0-1.7-.6-.6-.8-1.1-1.8-1.3-2.8-.3-1-.6-2.1-.8-3.1-.1-.3-.2-.5-.3-.9.3-.1.6 0 .8.2 1.5 1.2 3.2 2 4.4 3.5 0 0 .1.1.2.1.3-.3.4-.6.4-.9.1-.6.2-1.1.3-1.7.1-.8.3-1.5.5-2.3.1-.3.2-.7.3-1v-.7c0-.2-.1-.4-.4-.5-.8-.3-1.4-.9-1.8-1.6-.4-.8-.4-1.6-.2-2.4.2-.9.5-1.7.7-2.5.2-.6.4-1.2.6-1.7 0-.1.1-.2.1-.3.4.1.5.3.6.7 0 .3.1.6.1.9 0 .4.1.8.4 1.1.6.8.9 1.6 1.1 2.5 0 .1.1.3.1.4l.1.1c.1-.1.2-.3.3-.4 1.1-1.6 2.3-3.1 3.6-4.5l.3-.3c.3-.3.3-.5.1-.8-.1-.2-.3-.4-.5-.6-.4-.3-.5-.7-.5-1.2 0-1.4.6-2.4 1.6-3.3l.2-.2c.7-.5 1.4-1.1 1.9-1.8.1-.2.4-.3.6-.5.2-.1.3 0 .4.2.1.3.2.6.1.9-.1.3-.2.7-.3 1-.1.4-.2.8-.2 1.1-.1.4-.2.9-.3 1.3-.1.3-.3.7-.4 1-.1.2-.1.4-.1.7.3-.1.5-.2.6-.3.4-.2.7-.3 1.1-.5 1-.6 2.1-1.2 3.3-1.5.4-.1.8-.3 1-.6-.7-1.2-.3-2.9.9-3.7.5-.4 1-.7 1.6-.9.7-.2 1.4-.4 2.1-.7.5-.2.9-.4 1.4-.5.3-.1.6 0 .5.4-.1.3-.2.7-.4.9-.9.8-1.4 1.8-2 2.9-.1.2-.2.4-.4.7.1.3.3.3.6.2.7-.1 1.3-.2 2-.3 1.1-.2 2.3-.3 3.4-.5.2 0 .5-.1.7-.3.4-.3.8-.5 1.2-.8.7-.4 1.4-.7 2.2-.7.2 0 .4 0 .6.1.7.3 1.4.2 2 .3.4.1.9.2 1.3.3.2.1.4.3.6.4.3.3.3.5-.1.8l-.6.3c-.5.2-1 .5-1.4.9-.7.6-1.5 1-2.4 1.1-.4 0-.7 0-1.1-.2-1.1-.5-2.2-.7-3.4-.5-1.5.3-3 .5-4.6.8-.2 0-.4.1-.6.1.1.5.4.7.8.8.4.1.9.2 1.3.3.6.1 1.2.2 1.8.4.4.1.6.2.8.5-.2.4-.6.7-1 1-.5.3-1.1.4-1.8.5-1.3.2-2.5-.1-3.7-.5-.2-.1-.4-.2-.6-.4l-.9-.9c-.6-.5-1.3-.7-2.1-.3-.9.5-1.9.9-2.7 1.5-.2.1-.3.3-.6.5.2.1.4.3.6.3.9.2 1.6.6 2.3 1.1.3.2.7.3 1.1.3.6 0 1.3-.1 1.9-.1.4 0 .8.1 1.2.2.2 0 .3.2.2.4-.1.2-.3.5-.5.6-.6.4-1.3.7-2 .9l-3 .6c-.8.1-1.6.1-2.4-.3-.6-.2-1.1-.6-1.4-1.2 0-.1-.1-.1-.1-.2-.3-.4-.6-.5-1-.1-1 1-1.8 2.1-2.4 3.4-.1.3-.2.6-.4 1 .4-.1.7-.1 1.1-.2 1 0 2-.1 3.1-.1.8 0 1.7-.1 2.4-.5.1-.1.2-.1.4-.1.4 0 .5.3.4.6-.1.3-.3.6-.5.9-.4.5-.8.9-1.1 1.3-.1.1-.2.2-.3.4-.3.5-.8.7-1.3.8-.7.2-1.4.4-2.1.4-.4 0-.8 0-1.2-.1-.5-.1-.9-.4-1.2-.7-.5-.6-.8-.5-1 .2-.5 1.3-.7 2.6-1 3.9-.1.6-.2 1.2-.3 1.7 0 .2 0 .3-.1.5.5 0 .9-.2 1.2-.4.2-.1.3-.2.5-.2 1.4-.3 2.7-.7 4.1-1 .4-.1.9-.2 1.4-.2.2.4.1.8-.1 1.1-.6 1-1.3 1.9-2.2 2.7-1.1.8-2.3 1.1-3.6 1.2H12c-.1.2-.1.4-.2.6-.2 1.2-.3 2.3-.5 3.5-.1.7-.2 1.4-.1 2.1 0 .1 0 .2.1.4.2-.1.5-.2.7-.3 1.3-.8 2.8-1.3 4.2-1.9.5-.2.9-.4 1.3-.8.3-.3.6-.4 1.1-.3.2.4.1.8-.1 1.2-.3.6-.4 1.2-.9 1.7 0 .1-.1.1-.1.2-.2.8-.6 1.6-1.1 2.3-.3.5-.8.8-1.3 1-.8.3-1.7.3-2.5.2l-1.5-.3c-.4.8-.7 6.4-.4 7.4.3.1.5 0 .6-.2.3-.3.7-.5 1.1-.6 1-.4 2-.7 3-1.1.6-.3 1.2-.7 1.8-1.1.1 0 .1-.1.2-.1.2-.1.4 0 .4.2v.4c-.3 1.4-.7 2.8-1.7 3.9-1.1 1.2-2.6 1.9-4.3 1.7-.2 0-.4-.1-.6-.2-.2 0-.3-.1-.5-.2-.4 1-.4 6.4.1 7.9.3.1.5-.1.6-.2.4-.4.9-.6 1.4-.8 1.7-.5 3.3-1.3 4.7-2.2.3-.2.3-.2.8-.1 0 .3-.1.6-.1.9-.4 1.6-1.1 3-2.5 3.9l-.3.3c-.8 1-1.8 1.4-3 1.5H11c-.2.4-.2.8-.2 1.2.1 2 .3 3.9.6 5.9 0 .3 0 .5.1.8 0 .1.1.2.2.3.1-.1.2-.1.3-.2.1-.2.2-.3.3-.5.3-.7.8-1.2 1.5-1.5l1.8-.6c.8-.2 1.5-.4 2.2-.8.4-.2.9-.3 1.4-.5.3-.1.4.1.4.3-.1.5-.3.9-.6 1.3-.1.1-.2.2-.3.4-.3.6-.6 1.1-.9 1.7-.3.5-.6 1-1.1 1.4-.6.5-1.2.7-1.9.7h-2.7c0 .2-.1.3-.1.4 0 1.9.2 3.8.7 5.7v.1c.2.6.5.7.9.2l.2-.2c.3-.4.6-.7 1.1-.9.8-.4 1.6-1 2.5-1.4.9-.5 1.9-1 2.9-1.4.2-.1.4-.2.6 0 .2.2.1.4 0 .6-.3.7-.6 1.4-1 2.1-.3.5-.6 1-1 1.5-1 1.1-2.2 1.6-3.7 1.4-.4 0-.7-.1-1.1-.1h-.6c.2 2.1.8 3.9 2.1 5.6.1-.1.2-.2.2-.3.1-.3.3-.5.4-.8.1-.3.3-.5.6-.6.9-.5 1.6-1.2 2.3-1.8.4-.4.8-.8 1.3-1.2.1-.1.3-.2.4-.3.4-.2.9 0 .9.4 0 .2 0 .4-.1.5-.5 1.4-1 2.9-1.5 4.3-.2.5-.4.9-.6 1.3-.3.5-.9.9-1.5.8-.2 0-.4-.1-.6-.2l-.3-.3c.1 1.1 2.4 3.4 3.9 3.9v-.2c-.1-1.1.3-2 .9-2.8.4-.6.7-1.2 1-1.8.3-.6.6-1.3 1.1-1.8.1-.1.1-.1.2-.1.4.1.6.4.6.7.1.6.2 1.3.3 1.9.1 1 .1 1.9 0 2.9 0 .5-.1.9-.2 1.4-.1.6-.5 1.1-.9 1.5-.1 0-.1.1-.2.2 1.5 1.1 3.2 1.5 5.1 1.6-.1-.2-.2-.4-.2-.5-.2-.3-.3-.6-.5-.9-.1-.3-.2-.6-.2-.9.1-.9-.1-1.7-.3-2.5-.2-.6-.3-1.3-.4-1.9v-.6c.1-.4.5-.5.8-.3.3.2.5.5.7.8.2.3.4.7.6 1.1.5.9 1.1 1.8 2 2.4.3.2.5.4.7.6.7.7.8 1.6.4 2.4-.1.2-.2.5-.4.7.8.6 3.1 1 4 .6 0 0 0-.1-.1-.1-.9-.6-1.3-1.5-1.5-2.4-.2-.9-.4-1.8-.7-2.7-.2-.5-.2-1-.2-1.5 0-.2 0-.4.3-.6.2.1.3.2.5.4.5.6 1 1.1 1.4 1.7.6.8 1.2 1.5 2 2.1.3.3.7.6.9.9.6.7.7 1.4.3 2.3-.2.4-.1.5.3.6.3.1.6.1.8.2.7 0 1.4.1 2 .1h.4c-.1-.3-.3-.4-.4-.4-.6-.2-.8-.7-1-1.3-.2-.9-.3-1.8-.5-2.6-.1-.6-.3-1.2-.4-1.8-.1-.3-.1-.6.1-.9.2.1.3.1.5.2.5.3.9.7 1.3 1.1.9 1 1.9 2 2.6 3.2.3.4.6.9.8 1.4.2.4.2.8.2 1.2 0 .4 0 .5.5.6.4.1.7.2 1.1.2.7.1 1.5.1 2.2.1 0-.3 0-.4-.2-.6-.5-.4-.7-1-.9-1.7-.1-.5-.2-1-.3-1.4-.2-.9-.7-1.6-1.3-2.2-.2-.2-.4-.4-.6-.7-.2-.3-.3-.6-.1-1 .1 0 .2.1.3.1l5.1 2.7c.9.5 1.5 1.2 2 2 .3.5.3 1-.1 1.4-.3.4-.6.7-.9 1 0 0 0 .1-.1.1.4.3.8.3 1.2.4h1.8c.3 0 .7 0 1 .1.4.1.5.3.5.7 0 .3-.1.5-.1.8 0 .1-.1.2-.2.2-.3.1-.6.2-.9.2h-2.3c-.3 0-.6.1-.9.3.4 1.1.1 2-.5 2.9-.2.2-.4.4-.6.5l-.9.6c-.5.3-1 .6-1.6.8-.6.2-1.2.5-1.8.8-.5.2-1 .4-1.5.5h-.5c0-.3.1-.6.2-.8.2-.2.3-.5.6-.7.6-.6 1.1-1.3 1.6-2.1.4-.8.9-1.5 1.5-2.2.2-.2.4-.5.6-.7 0 0-.1-.1-.2-.1-1-.1-2-.2-2.9-.2-.4 0-.4 0-.4.4 0 .3-.1.6-.1.9-.2 1-.8 1.7-1.7 2.2-.7.4-1.4.6-2.1.9-.6.2-1.2.4-1.8.7-.8.3-1.7.3-2.5.3-.1-.3 0-.5.1-.7l.2-.2c.9-.5 1.4-1.4 2-2.2l.6-.9c.3-.5.7-.9 1.2-1.2.2-.1.4-.3.6-.6l-.9-.3c-.7-.2-1.5-.2-2.3-.1-.2 0-.4.1-.5.4-.3 1-.9 1.8-1.8 2.4-.6.4-1.2.8-1.8 1.1-.1.1-.3.1-.4.2-.7.6-1.5.8-2.3 1.1-.3.1-.6.2-1 .2-.3 0-.5 0-.8-.1-.1-.4.1-.7.3-1l.6-.6c.3-.3.6-.6.8-1.1.4-1 1.2-1.7 1.9-2.5.3-.3.5-.6.9-.9-.7-.1-1.3-.3-1.9-.4-.4-.1-.8-.1-1.2-.2-.4 0-.4 0-.5.4-.2.8-.5 1.5-1.1 2.1-.4.4-.8.7-1.4.9-1 .4-2 .6-3.1.6-.9 0-1.8 0-2.7.1-.2 0-.3.1-.5.1s-.5-.2-.5-.4c-.1-.2 0-.5.2-.6 1.3-.6 2.4-1.5 3.5-2.4.4-.3.9-.6 1.4-.9.2-.1.3-.2.5-.4-1.9-.6-3.6-1.2-5.4-1.9 0 .1-.1.1-.1.2-.1.6-.5 1.1-1 1.4-1 .7-2 1.3-3.3 1.4-1.5.1-3.1.2-4.6-.2-.1 0-.2-.1-.4-.1-.4-.1-.5-.5-.2-.8.2-.2.4-.3.7-.4.7-.2 1.3-.5 1.8-1 .8-.8 1.8-1.3 2.7-1.9.4-.2.7-.4 1.1-.7-.2-.2-.3-.4-.5-.5-1.1-.8-2.1-1.9-3.1-2.9l-.2-.2c-.2-.2-.4-.2-.6 0l-.3.3c-.8 1.2-1.9 1.7-3.3 1.7-.4 0-.9-.1-1.3-.2-1.3-.3-2.5-.7-3.7-1.3-.2-.1-.5-.3-.7-.4-.1-.1-.3-.2-.3-.4.1-.2.2-.4.4-.4.7-.2 1.3-.3 2-.5 1.3-.3 2.6-.7 3.9-1 .5-.1 1-.2 1.6-.3 0-.2 0-.4-.1-.6-.1-.3-.2-.6-.4-.9-.5-.8-.9-1.7-1.1-2.6-.1-.5-.3-1-.7-1.5-.1.1-.3.2-.4.3-.4.3-.7.5-1.1.8-.5.3-1.1.5-1.8.4-1.5-.1-2.9-.5-4.1-1.4-.6-.4-1.1-1-1.6-1.6-.2-.2-.2-.5 0-.7.1-.3.4-.2.6-.2.8.4 1.6.1 2.4 0 1.2-.2 2.5-.3 3.7 0l1.8.6c.1-.1.1-.3.1-.5-.2-1.3-.4-2.7-.6-4-.1-.8-.3-1.7-.4-2.5-.1-.6-.3-.7-.8-.3-.1 0-.1.1-.1.1-1 1-2.2 1.2-3.5.8-.8-.2-1.5-.6-2.2-1-.5-.3-1.1-.6-1.6-.9-.1.6-.3.5-.3.4-.3-.4-.5-.7-.8-1.1 0-.1-.1-.1-.2-.1v-.7c.2 0 .3.1.5.1.6.1 1.1.3 1.7.3 1 .1 2.1 0 3.1 0 1.1 0 2.3 0 3.4.3H9c0-.2.1-.3.1-.5 0-.8 0-1.7-.1-2.5-.1-1.4-.4-2.7-.3-4.1 0-.3-.1-.5-.4-.7-.3 0-.6-.1-.9 0l-.9.3c-1.4.5-2.8.3-4-.5-.5-.4-1-.9-1.5-1.4-.5-.4-.7-1.1-.8-1.7 0-.2 0-.3-.2-.4v-.6h.1c.6-.5 1-.6 1.6-.1.6.4 1.2.7 1.9.8.4.1.9.2 1.3.2 1.1.2 2.2.4 3.2 1h.1V63.5c0-.3-.2-.4-.5-.3-.2.1-.3.2-.5.3-.2.1-.5.3-.7.4-.7.2-1.5.1-2.3-.2-.9-.4-1.6-.9-2.2-1.6-.6-.7-1.1-1.5-1.7-2.2-.1-.1-.1-.3-.4-.3.1-.2.1-.3.1-.4zm83.9 58.2s0-.1 0 0c.4-.7.4-.7-.1-1.2-.9-1-1.9-1.8-2.9-2.6-.4-.3-.8-.7-1.2-1l-.3-.3c-.3-.3-.5-.6-.8-.9-.1-.1-.1-.2-.2-.3.8-.3 4.5-.7 5.2-.5 0 .1 0 .2-.1.3 0 .1-.1.2-.1.3-.3.7-.2 1.3.3 1.8.8.9 1.8 1.4 3 1.7 1 .2 2.1.3 3.1.2.4 0 .8 0 1.2.3.3.2.6.2.9.1.2 0 .4-.2.4-.4s-.1-.3-.2-.4c-.7-.4-1.3-1-1.8-1.6-.5-.6-1.1-1-1.8-1.4l-1.5-.9c-.2-.1-.3-.2-.4-.4 1.3-.4 2.7-.4 4.1-.5-.3.6-.2 1.2.1 1.7.1.2.2.4.3.5.8.7 1.6 1.3 2.7 1.7.9.4 1.9.5 2.9.3h.7c.3.1.6.2.9.2.6.1.8 0 .9-.7-1.8-1.2-3.6-2.5-5.1-4.2 1.6-.5 3.2-.5 4.9-.7.1.2.1.4.1.5.2.6.4 1.2.9 1.7.2.3.5.5.8.7 1.1.7 2.2 1.2 3.4 1.4.5.1 1 .1 1.4.1.8-.1 1.5-.5 2.1-1 .2-.2.3-.4.3-.8-2-.8-3.8-1.9-5.6-3.3.2-.1.3-.2.5-.2.7-.3 1.5-.5 2.2-.8.7-.3 1.4-.7 2.1-1.1.4-.3.8-.2 1.1.2.1.1.2.3.2.4.3.8.9 1.2 1.7 1.5.8.3 1.6.3 2.5.2h.3c.9 0 1.7-.4 2.4-1 .5-.4 1-.8 1.6-1 .2-.1.4-.3.4-.5 0-.4-.2-.6-.6-.6-.3 0-.5.1-.8.1-.7.1-1.4-.1-2-.2-1.2-.2-2.3-.5-3.5-.7-.1 0-.1 0-.2-.1.1-.1.1-.2.2-.3.9-.9 1.8-1.9 2.7-2.8.3-.3.6-.5.9-.8.2.2.4.4.6.5.2.2.4.5.6.7.5.5 1 .7 1.8.6 1.6-.3 2.8-1.1 3.9-2.3.4-.4.7-.9 1.1-1.3.2-.2.2-.4.1-.6 0-.2-.2-.3-.4-.2-1.2.7-2.5.4-3.8.3-.7-.1-1.4-.1-2.1 0-.1 0-.3 0-.5-.1l.9-1.8c.3-.8.7-1.6 1-2.5.3-.9.6-1 1.3-.4.2.2.5.4.7.6.4.3.7.3 1.2.2 1.3-.4 2.2-1.1 3-2.1.6-.9 1.2-1.9 1.8-2.8.2-.2.1-.4 0-.7-.1-.2-.2-.3-.5-.2-.2.1-.4.2-.7.3-1.3.5-2.7.9-4 1.4l-1.5.6c-.4.1-.5 0-.5-.3l.6-4.2c.1-.5.2-.9.4-1.5.3.1.6.1.9.2.7.2 1.5.2 2.2 0 .4-.1.7-.2 1.1-.3.2-.1.3-.1.5-.3.4-.4.9-.8 1.3-1.2.2-.2.3-.4.4-.6.3-.4.6-.8.8-1.2.3-.4.6-.9.8-1.4.2-.3.2-.7.1-1.1-.4-.1-.8-.1-1.2.1-1.5.8-3.1 1.5-4.7 1.9-.4.1-.9.3-1.3.4-.2.1-.3.1-.5.2 0-.1-.1-.2 0-.3.2-2.2.3-4.4.5-6.7 0-.2 0-.5.1-.7 0-.1.1-.3.1-.4.1.1.2.1.3.2.5.3 1 .4 1.6.3.3-.1.7-.2 1-.3.6-.2 1.1-.3 1.7-.5.2-.1.3-.2.5-.3.4-.4.8-.8 1.1-1.3.6-.9 1.2-1.9 1.8-2.8v-.5c-.2 0-.4-.1-.6-.1l-2.4.6c-1 .3-1.9.7-2.9.9-.5.1-1 .3-1.4.7-.1.1-.3.3-.6.2v-.3c0-1.8.1-3.7.1-5.5v-1.8c0-.3.1-.6.4-.9.3.4.7.4 1.1.4h.5c.6 0 1.1-.3 1.4-.7.3-.3.5-.7.7-1.1.3-.5.5-1.1.7-1.6.3-.7.7-1.4 1.3-1.9l.6-.6c.2-.3.1-.7-.3-.8-.3-.1-.7-.1-1 .1-.6.5-1.4.9-2.1 1.2-.8.3-1.5.8-2.2 1.4l-.6.6c-.1.1-.2.1-.3.2-.3-.1-.2-.4-.2-.6l-.3-5.7c0-.8.2-.8.8-.7h.1c.8.1 1.4-.2 1.7-.9.1-.3.2-.5.3-.8.2-.4.4-.8.8-1.2.4-.4.8-.8 1.1-1.2.5-.6.8-1.4 1-2.2 0-.2 0-.4-.2-.5-.2-.1-.4 0-.6.1-.4.3-.7.5-1.2.7-.5.2-1.1.4-1.7.6-.9.3-1.7.6-2.4 1.2h-.1c0-.2-.1-.4-.1-.6-.2-1.4-.4-2.7-.6-4.1-.1-.5-.1-.9-.1-1.4 0-.4.1-.4.5-.4.2 0 .3.1.5.2.4.2.8.2 1.1 0 1-.5 1.7-1.2 2.1-2.3.3-.8.6-1.6.9-2.5.2-.7.4-1.5.3-2.2 0-.4-.1-.5-.5-.4-.5.1-.9.3-1.2.7-1 1.3-2.2 2.5-3.5 3.6-.1.1-.3.2-.4.3-.1-.1-.1-.2-.1-.3-.1-.5-.3-1.1-.4-1.6-.3-1.3-.6-2.5-.9-3.8-.1-.4-.2-.7-.3-1-.1-.3 0-.4.3-.4h.2c.8.1 1.5-.3 1.9-1 .4-.8.8-1.6 1-2.4.3-1 .4-2 .4-3 0-.6-.1-1.2-.3-1.8-.1-.2-.2-.5-.4-.6-.3.2-.5.5-.6.8-.1.4-.3.8-.4 1.2-.1.3-.3.6-.6.7-1 .5-1.5 1.3-1.9 2.3-.1.4-.2.8-.4 1.2 0 .1-.2.2-.3.3-.2.1-.2-.1-.3-.2-.3-.5-.6-1.1-1-1.6-.9-1.4-2.1-2.6-3.2-3.8-.2-.2-.4-.4-.6-.7.2-.1.3-.2.4-.3l.6-.3c.4-.3.6-.6.7-1.1 0-.6 0-1.2-.1-1.8-.5-1.9-1.8-3.2-3.3-4.3-.2-.1-.4-.1-.4.1-.1.3-.1.6 0 .9.2.8.2 1.7.1 2.6 0 .6-.1 1.1-.1 1.7v.7c-.4-.2-.8-.4-1.1-.5-1.3-.6-2.5-1.2-3.8-1.7-.3-.1-.5-.3-.7-.6v-.2c.3-.6.2-1.1-.2-1.6-.4-.4-.7-.8-1.1-1.2-1.2-1.2-2.6-2-4.2-2.6-.4-.2-.7 0-.7.5 0 .2.1.4.2.6 1 1 1.4 2.3 2 3.5.1.2 0 .4-.3.4h-.2c-1.3-.2-2.6-.4-3.9-.5-1.3-.2-2.5-.4-3.7-1-.5-.3-1.1-.4-1.7-.4h-.8c-.5 0-1 .1-1.4.5-.3.3-.7.3-1 .4-.2 0-.4 0-.6.1-.5.2-.6.7-.2 1.1l.3.3c.3.4.7.7 1.2.9.5.2 1 .3 1.5.4.9.2 1.8.4 2.6.5h.7c.6-.1 1.1-.4 1.5-.9.2-.2.4-.3.7-.2h.3c1.3.2 2.5.4 3.8.6.1 0 .3 0 .4.1.2.1.3.2.5.4-.6.2-.9.6-1.2 1.1-.5.8-1.1 1.6-1.9 2.3-.1.1-.3.3-.4.5-.1.1-.1.3-.1.4 1 .4 1.9.3 2.8.1 2.1-.5 3.4-1.8 4.3-3.7.3.1.6.1.9.2 1.7.4 3.2 1.3 4.6 2.2l.3.3c.1.1.1.3.2.4l-.1.1c-1.9.7-3.8 1.4-5.6 2.1-.2.1-.3.2-.3.4s.1.4.3.5c.1 0 .1 0 .2.1.7.2 1.3.4 2 .5.9.2 1.9.4 2.9.3.5 0 .9-.2 1.4-.4.7-.2 1.2-.6 1.4-1.4.1-.4.3-.5.6-.2.5.5 1 1.1 1.5 1.7.8.9 1.5 1.9 1.9 3 .1.3.2.6 0 .8h-.2c-1.2-.4-2.5-.4-3.7-.2-.5.1-.9.1-1.3-.1-.2-.1-.5-.1-.8-.1-.2 0-.3.1-.3.3 0 .2 0 .4.3.6.5.3.9.7 1.3 1 .3.2.5.5.8.7.4.4.9.7 1.5.7.5.1 1.1.1 1.6.2.7.1 1.4 0 1.9-.4h.1c0 .1.1.1.1.2.2.6.5 1.2.6 1.9l.6 4.2v.3l-.6-.3c-.6-.1-1.1-.3-1.6-.6s-.9-.6-1.4-.9c-.6-.4-1.3-.7-2-.8-.5-.1-.7.1-.7.6 0 .2 0 .5.2.7.5.8 1 1.5 1.5 2.3.4.6.8 1.1 1.3 1.6.3.3.7.5 1 .6.9.2 1.9.2 2.7-.5h.1c.1.2.2.4.2.6.1.4.2.8.2 1.3.1.7.1 1.4.2 2.1.1.7.2 1.3.2 2 0 .3 0 .6-.3.8-.5-.2-.9-.5-1.4-.7-.5-.2-1-.3-1.4-.5-.9-.3-1.7-.6-2.5-1.2-.2-.2-.5-.3-.7-.4-.3-.1-.5 0-.6.3-.1.4-.1.7.1 1.1.4.7.8 1.4 1.3 2.1.4.6.9 1.2 1.3 1.8.4.5.9.8 1.5 1.1.4.2.8.2 1.2 0 .3-.2.7-.3 1-.5.2-.1.5-.3.8-.2v.1c.1 1.8.2 3.7.3 5.5 0 .4.1.9.1 1.3 0 .1-.1.3-.2.3s-.2 0-.3-.1c-.5-.4-1.1-.6-1.7-.8-.5-.2-1-.3-1.5-.5-1.1-.3-2.1-.7-2.9-1.5-.2-.2-.4-.2-.6-.3-.4-.1-.6.1-.7.5-.1.3-.1.7.2 1 .2.2.3.4.4.6.4.6.8 1.3 1 2 0 .2.1.3.3.5.5.6 1.1 1.1 1.8 1.4 1 .3 2.1.5 3.1-.1.2-.1.4-.1.6-.1.3 0 .4.1.4.4 0 .5.1 1 .1 1.6v5.6c0 .2-.1.4-.3.5-.2-.1-.5-.2-.7-.3-.3-.1-.6-.3-.9-.4-.6-.2-1.2-.6-1.6-1.1-.3-.3-.6-.7-.9-1-.4-.4-.7-.7-1.1-1-.3-.3-.7 0-.7.4v.2c.1 1 .3 2 .4 3 .1.9.4 1.6 1 2.2.5.6 1.2 1 1.8 1.3.5.2.9.2 1.3-.1.2-.2.5-.4.7-.5.3-.1.6-.2.8.1v.3c-.1.8-.1 1.7-.2 2.5-.1 1.6-.2 3.2-.5 4.8 0 .3-.1.5-.4.8-.6-.5-1.3-.8-2-1.1-.7-.2-1.4-.5-2.1-.7-.4-.1-.8-.4-1.1-.7-.2-.2-.4-.5-.7-.7-.2-.2-.5-.3-.8-.2-.4.1-.6.3-.5.7.2 1 .4 1.9.8 2.8.2.7.7 1.1 1.3 1.5.3.2.7.4 1.1.6.4.3.9.5 1.1 1 .3.5.7.5 1.2.5.3-.1.7-.1 1-.2h.5c0 .3 0 .5-.1.8-.3 1.5-.5 2.9-.8 4.4 0 .2-.1.4-.4.5-.3-.3-.5-.6-.8-.8-.4-.4-.9-.7-1.3-1-.7-.5-1.3-1.1-1.7-1.9-.1-.2-.3-.5-.4-.7-.2-.2-.4-.4-.7-.5-.4-.1-.6-.1-.7.4-.4 1.3-.4 2.5 0 3.8.3.9.8 1.5 1.6 1.9.6.3 1.3.5 1.9.6.4.1.9.2 1.3.3.2.1.3.2.3.4 0 .1 0 .3-.1.4-.3 1.2-.9 2.2-1.7 3.2h-.1c-.1-.2-.3-.4-.5-.5-.7-.6-1.3-1.2-2.1-1.8-.7-.5-1.2-1.2-1.7-1.9-.1-.3-.4-.5-.6-.7-.2-.2-.5-.3-.9-.3 0 .2-.1.3-.1.5 0 .5 0 1.1.1 1.6 0 .7.1 1.5 0 2.2-.1.7.2 1.2.8 1.5.6.3 1.3.6 1.9.9.2.1.4.1.7.1.3 0 .7-.1 1-.2h.3v.3c-.1.2-.3.4-.4.6-1.1 1.5-2.6 2.6-4.1 3.7l-.1.1c-.3.1-.4 0-.4-.3v-.4c0-1.1-.3-2.2-.7-3.3-.2-.5-.3-1-.3-1.5 0-.4-.1-.8-.2-1.2-.1-.3-.4-.5-.6-.5-.3 0-.4.2-.5.5-.4 1.2-.9 2.3-1.5 3.4-.4.8-.7 1.6-.7 2.5 0 .8.3 1.4 1.1 1.7.2.1.4.2.6.2.1.1.2.1.4.2-1.6.8-3.1 1.6-4.9 1.5 0-.2-.1-.4-.1-.5 0-.7 0-1.5-.1-2.2 0-.5.1-1 .2-1.5l.6-2.1c.1-.3.1-.6 0-.8-.1-.3-.3-.4-.5-.2-.1 0-.1.1-.2.2-.5.5-1 1.1-1.5 1.6s-1 1.1-1.4 1.7c-.6.8-.8 1.8-.8 2.8 0 .4.1.7.5 1 .2.2.4.3.6.6-.4.1-.7.2-.9.3-.8.1-1.5.2-2.3.3-.4.1-.8.1-1.2.1-.3 0-.5-.2-.4-.5 0-.1.1-.2.1-.3.1-.2.2-.5.1-.7-.1-1 .2-1.8.8-2.6l.9-1.2c.4-.5.6-1.1.7-1.8 0-.2 0-.3-.1-.6-.2.1-.4.2-.5.3l-1.2.9c-1.1.7-2 1.6-3 2.5-.3.3-.6.6-.8 1-.4.7-.7 1.4-.7 2.2 0 .3 0 .5.3.7.1.1.2.2.2.3-.6.4-3.6.7-4.2.5.2-.8.5-1.7.6-2.5.1-.8.4-1.5.8-2.1.4-.5.7-.9 1.1-1.4.3-.3.5-.6.7-1-.3-.4-.4-.4-.7-.2-.5.3-1.1.6-1.6.8-.3.1-.6.3-1 .4-1 .3-1.8 1-2.6 1.8-.5.6-.8 1.2-.9 1.9-.1.4 0 .8.2 1.1.2.3.4.5.6.8.1.2.3.3.2.5-1 .3-4.5.5-5.2.3 0-.3-.1-.7-.1-1.1-.1-.7 0-1.4.3-2.1.4-.8.9-1.4 1.5-2l1.8-1.5.5-.5c-.2-.3-.4-.4-.7-.3-.2.1-.3.2-.5.2-.9.2-1.7.5-2.6.6-1 .1-1.7.6-2.3 1.3-.1.2-.3.3-.4.5-.5.6-.8 1.4-.9 2.2-.1.6 0 1.1.6 1.4.3.2.6.4.9.7.2.1.3.3.5.5-.2.3-.5.4-.8.4h-2.7c-.4 0-.7.2-.9.5-.3.4-.2.7.1 1.1.4.3.8.5 1.3.5.6 0 1.1.1 1.7.1.1 0 .2 0 .4.1-.3.7-.3 1.3-.4 2 0 .6.2 1.1.7 1.5.2.2.4.3.6.5.2.2.4.4.5.6.1.2.2.3.4.4.9.4 1.8.6 2.7.7.9.1 1.8.2 2.8.4.1 0 .3.1.4.2h.8zM63.9 0l-.1.1c-1 .4-1.6 1.1-1.9 2.1-.1.3-.1.5-.2.8-.3.1-.6.1-.9.1-.3.1-.6.1-.8.2-3.3.7-6.2 2.1-8.7 4.4-1.9 1.8-2.9 3.9-2.9 6.5 0 2.1.8 4 2.1 5.7 1.4 1.8 3.2 3 5.2 4 1.9.9 3.9 1.5 5.9 1.9.5.1.5.1.5.7 0 2.1.1 4.1.1 6.2 0 1 0 1.9.1 2.9 0 .4-.1.6-.5.7-.1 0-.2.1-.3.1-.9.2-1.7.5-2.5.9-1.2.7-2.2 1.5-2.9 2.8-.8 1.6-.9 3.2 0 4.7 1 1.7 2.4 2.8 4.3 3.4.5.2 1 .4 1.6.5.3.1.5.3.5.7v5.5c0 .4-.1.5-.5.7-.5.2-1.1.4-1.6.7-.4.2-.7.4-1 .7-.3.2-.4.5-.4.9.1.9 1 1.5 1.8 1.2l.9-.3c.2-.1.5-.2.8-.1v3.1c0 .5.1 1.1.3 1.6.4 1 1.3 1.3 2 1.2.5 0 .8-.3 1.1-.6.2-.2.3-.5.3-.8v-.9c.1-1.7.1-3.3.1-5 0-.3.1-.4.4-.5.2-.1.4-.1.6-.2 1.6-.6 3-1.6 3.9-3.1.8-1.3.7-3-.3-4.2-.4-.5-.9-.9-1.3-1.3-.8-.6-1.7-1-2.7-1.3-.2-.1-.4-.2-.4-.5V41c0-.5.1-.9.1-1.4.2 0 .3-.1.4-.1.1 0 .3 0 .4-.1 1.9-.4 3.6-1.1 5.3-2.1 1.4-.8 2.5-1.9 3.3-3.3.7-1.2 1-2.6.8-4-.2-2.1-1.2-3.7-2.7-5.1-1.4-1.3-3.1-2.2-5-2.7-.5-.2-1.1-.2-1.6-.4-.5-.1-.6-.3-.6-.8 0-2.2 0-4.5.1-6.7.1-1.9.2-3.9.3-5.8 0-.2 0-.3.1-.5h.2c1.8.1 3.5.4 5.3.8l.6.3c.5.4 1 .9 1.5 1.3 1.2 1 2.6 1.8 4.2 2.3 1.6.5 3.2.5 4.8.3.2 0 .4-.1.6-.2.4-.1.4-.2.4-.6-.1-.9-.3-1.8-.8-2.7C82.9 7.4 81 5.8 78.6 5c-1.2-.4-2.4-.6-3.6-.9-1.3-.3-2.7-.6-4-.9l-3.3-.6c-.2 0-.4-.1-.4-.3 0-.8-.5-1.4-1.1-1.8L65-.1c-.4.1-.7.1-1.1.1zM62 21h-.3c-1.9-.3-3.7-.9-5.2-2-.9-.6-1.6-1.4-2.1-2.4-.3-.5-.4-1-.5-1.5-.1-1.1.1-2.1.6-3 1.1-1.7 2.6-2.8 4.5-3.5.7-.2 1.5-.3 2.2-.5h.5c.3 4.4.3 8.6.3 12.9zm5.2 5.7c1.7.4 3.1 1.2 4 2.6.9 1.3.8 2.5-.1 3.8-.5.8-1.2 1.3-2.1 1.7-.4.1-.7.3-1 .5-.3.1-.6.2-.9.2-.3 0-.4-.1-.4-.4v-1.7c0-1.4.1-2.7.1-4.1 0-.8 0-1.5.1-2.3v-.2c.2-.1.3-.2.3-.1zm-5.4 18.6c-.9-.3-1.6-.9-2-1.7-.1-.2-.1-.4-.1-.6 0-.9.4-1.6 1.1-2.1.2-.2.5-.3.7-.4.2-.1.4-.1.6-.2.4 1.7.2 3.4.2 5.1-.2-.1-.4-.1-.5-.1zm4.9 4.5c.8.1 1.7 1.1 1.8 1.9 0 .3-.1.6-.3.9-.4.6-.9.8-1.5 1-.4-.9-.3-3.1 0-3.8zm-9 24l4.5 20.7h5.1c1.5-6.9 3.1-13.8 4.6-20.7h.1v20.7c.7.1 4.5.1 4.8 0V69.6h-7.5c0 .1-.1.2-.1.4-.6 2.7-1.2 5.3-1.8 8-.8 3.6-1.6 7.3-2.5 10.9 0 .1-.1.2-.1.3h-.1c-1.5-6.5-3-13-4.5-19.6h-7.6c-.1 1-.1 24.6 0 25h4.8V73.9c.2-.1.2-.1.3-.1zM26.6 88.3c1 2.4 2.5 4.3 4.8 5.5 3.2 1.6 6.5 1.9 9.9 1 3.8-1.1 6.3-3.6 7.5-7.4.4-1.3.6-2.7.7-4.1.1-2.2-.1-4.4-.7-6.5-1.1-3.4-3.3-5.9-6.7-7.1-3.1-1.1-6.2-1.1-9.3 0-3 1.1-5.1 3.2-6.3 6.2-.8 2-1 4.1-1 6.1.1 2.2.3 4.3 1.1 6.3zm17-1.1c-1.2 2.5-3.2 3.7-5.9 3.7-2.8 0-5-1.6-6-4.2-.4-1-.6-2.1-.7-3.2-.1-1.7-.1-3.3.4-4.9.4-1.3 1-2.5 2-3.4 1.3-1.3 3-1.8 4.8-1.7 2.7.2 4.5 1.6 5.6 4 .5 1.2.7 2.5.8 3.9v.2c0 1.9-.1 3.8-1 5.6zm38 1.1c.2 1.4.7 2.7 1.6 3.8 1.1 1.4 2.6 2.2 4.3 2.7 1.9.5 3.9.7 5.8.5 1.7-.1 3.3-.5 4.8-1.3 1.8-.9 3-2.3 3.6-4.2.3-.9.4-1.9.3-2.9 0-2.3-1-4.1-3.1-5.2-1-.5-2-.9-3.1-1.1-2.2-.6-4.4-1.1-6.6-1.6-.4-.1-.8-.2-1.1-.4-1-.5-1.4-1.3-1.4-2.4.1-1.1.7-1.8 1.6-2.3.7-.3 1.4-.5 2.2-.5 1.2 0 2.3 0 3.4.5s1.8 1.3 2.1 2.5c.1.2.1.5.2.7h4.9v-.2c-.1-1.9-.8-3.6-2.1-5-1.1-1.2-2.5-1.9-4.1-2.3-1.6-.4-3.3-.5-4.9-.4-1.2.1-2.3.3-3.4.7-2.1.8-3.7 2.2-4.4 4.4-.5 1.6-.5 3.2-.1 4.8.3 1.3 1 2.4 2.2 3.1.6.4 1.2.7 1.8.9 1.1.4 2.3.7 3.5 1l4.8 1.2c.6.2 1.2.4 1.7.8s.8.8.9 1.4c.1 1-.1 1.9-1 2.6-.4.3-.8.5-1.3.6-1.2.4-2.5.5-3.8.4-.8-.1-1.5-.2-2.2-.5-1.2-.6-1.9-1.5-2.2-2.8 0-.2-.1-.4-.1-.6h-5c.1.2.1.6.2 1.1zM31.2 57.1c.6-1.7 1.2-3.4 1.7-5.1h8.8c.5 0 .5 0 .6.5.4 1.4.9 2.9 1.3 4.3 0 .1.1.2.1.3 1 .1 5.3.1 5.6-.1-2.9-8.3-5.9-16.6-8.8-24.9h-6.1c-3 8.3-5.9 16.6-8.9 25h5.7zm9.5-9.5c-.4.1-5.8.1-6.3 0 1.1-3.3 2.1-6.5 3.2-9.7h.1c1 3.2 2 6.4 3 9.7zm38.6 9.5h5.5c.1-.1.1-.3.1-.4.5-1.4.9-2.8 1.4-4.2.2-.5.2-.5.7-.5h8.7c.5 1.7 1.1 3.4 1.6 5.1h5.7c-2.9-8.4-5.9-16.7-8.8-25h-6.1c-2.8 8.4-5.8 16.7-8.8 25zm11.8-19.2h.1c1 3.2 2 6.5 3 9.7-.4.1-5.9.1-6.3 0 1.1-3.3 2.2-6.5 3.2-9.7z" fill="currentColor"> </path></svg>