<svg width="100" height="66" viewBox="0 0 300 190.1"><title>Ensim</title><path d="M85.4 156.2l5.1 18.9-11.7 3.1 20.5 11.9L115 163c-3-3.9-5.4-8.2-7.1-12.8l-22.5 6zm53.9-93.5l6.1 22.9c4.8-.8 9.7-.8 14.5-.1l16.2-27.9-20.4-11.9 3.1 11.7-19.5 5.3zm-61.6 64.9l5.2 19.5 22.4-6c-1.6-9.5-.2-19.4 3.8-28.1l-20.3-11.7-9.8 16.9-25-14.5 24.6-42.6 25 14.5-10 17.5 20.4 11.8c5.6-7.7 13.4-13.6 22.3-16.9l-6.1-22.9-18.9 5.1-7.5-27.9 31.4-8.4L76.9 0 0 132.5l58.1 33.7-8.4-31.2 28-7.4z" fill="currentColor"></path><path d="M160.3 129.4h-22.4c0 4.3 2.3 6.7 6.7 6.7 2.3 0 3.9-.8 5.1-2.7h10.2c-1.7 7.1-8.4 10.3-15.3 10.3-9.9 0-17.4-5.6-17.4-16 0-10 6.8-16 16.6-16 10.4 0 16.4 6.4 16.4 16.7l.1 1zm-9.9-6.2c-.5-2.9-3.1-4.7-6-4.7-3.1 0-5.7 1.6-6.3 4.7h12.3zm24.8-6.8h.1c2.4-3.6 5.4-4.9 9.6-4.9 8.1 0 11.3 5.1 11.3 12.5v18.5h-10.6V128c0-2.9.5-7.9-4.8-7.9-4.3 0-5.6 3.2-5.6 7v15.5h-10.6v-30h10.6v3.8zm47.2 3.9c-1.6-.9-3.9-1.5-5.7-1.5-1.2 0-3.3.5-3.3 2 0 2 3.3 2.3 4.8 2.6 5 1 8.7 3.3 8.7 8.9 0 7.9-7.2 11.2-14.1 11.2-4.3 0-8.5-1.2-12.1-3.4l3.9-7.4c2.2 1.5 5.8 3 8.4 3 1.3 0 3.3-.6 3.3-2.3 0-2.3-3.3-2.5-6.7-3.3-3.3-.9-6.7-2.5-6.7-7.9 0-7.4 6.7-10.6 13.2-10.6 3.4 0 6.8.5 9.9 1.9l-3.6 6.8zm37.4-4h.1c2.5-3.3 5.6-4.7 9.5-4.7 4.3 0 8.1 1.7 10.2 5.7 2-3.7 6.1-5.7 10.2-5.7 7.6 0 10.2 5 10.2 11.9v19.1h-10.6v-14.3c0-3.1.1-8.2-4.4-8.2-4.9 0-5.1 4.6-5.1 8.2v14.3h-10.6v-14.3c0-3.3 0-8.4-4.7-8.4s-4.7 5.1-4.7 8.4v14.3h-10.6v-30h10.6l-.1 3.7zm-17.1 26.3h-10.6v-30h10.6v30z" fill="currentColor"></path><path d="M242.8 103.8c0 2.9-2.4 5.3-5.3 5.3s-5.3-2.4-5.3-5.3 2.4-5.3 5.3-5.3 5.3 2.4 5.3 5.3z" fill="currentColor"></path></svg>