<svg viewBox="0 0 24 24"><path d="M17.32 4a5 5 0 0 1 4.97 4.47q0 .08.02.13v.02c.08.69.69 5.81.69 7.38 0 2.2-1.8 4-4 4-1.34 0-2.04-.62-2.7-1.3l-1.42-1.4a1 1 0 0 0-.7-.3H9.82a1 1 0 0 0-.7.3L7.7 18.7C7.04 19.39 6.34 20 5 20c-2.2 0-4-1.8-4-4 0-1.57.61-6.7.7-7.38V8.5A5 5 0 0 1 6.69 4zm0 2H6.68A3 3 0 0 0 3.7 8.7l-.02.18C3.59 9.6 3 14.49 3 16c0 1.1.9 2 2 2 .66 0 .96-.38 1.3-.7l1.4-1.42A3 3 0 0 1 9.84 15h4.34a3 3 0 0 1 2.12.88l1.42 1.41c.33.33.63.71 1.29.71 1.1 0 2-.9 2-2 0-1.52-.6-6.45-.68-7.13l-.02-.16v-.02A3 3 0 0 0 17.32 6M7 12H6a1 1 0 0 1 0-2h1V9a1 1 0 0 1 2 0v1h1a1 1 0 0 1 0 2H9v1a1 1 0 0 1-2 0zm11-3a1 1 0 1 1 0 2 1 1 0 0 1 0-2m-2.99 2a1 1 0 1 1 0 2 1 1 0 0 1 0-2"/></svg>
