<svg xmlns="http://www.w3.org/2000/svg" viewBox="0 0 512 83.1">
  <path fill="#53A318" d="M263.9 82.7c17.9 0 29.7-11.6 29.7-31.2v-50h-19.5v49.2c0 9.1-3.3 13.5-10.2 13.5-6.6 0-9.4-4.6-9.4-13.5V1.5h-19.7v50.1c0 19.9 10.8 31.1 29.1 31.1zm54.9-27h5.6c8.3 0 14.5-.6 19.7-3.5 7.9-4.8 12.7-13.3 12.7-23.7 0-10-3.7-17.5-10.8-22.4-5.4-3.7-11.8-4.4-20.2-4.4h-26.6v80h19.5v-26zm.2-36.4h5.2c8.7 0 12.9 2.7 12.9 9.4 0 7.3-4.8 9.8-14.3 9.8h-3.5V19.3h-.3zM465 37l29.7 44.5H512v-80h-19.5V46L463.2 1.5h-17.7v80H465V37zM188.7 82.9c11.2 0 21.6-4.4 29.5-12.5 7.5-7.7 11.6-18.1 11.6-29.5 0-11-4.4-21.2-12.5-29.1C209.7 4.2 199.5 0 188.9 0c-11.4 0-21.2 3.9-29.1 11.6s-12.1 17.9-12.1 28.9c0 11.8 3.7 21.6 11.4 29.7 7.8 8.6 17.7 12.7 29.6 12.7zm.2-63c11.2 0 20.6 9.4 20.6 21 0 13.1-9.4 22.2-20.8 22.2-11 0-21-9.8-21-22.2 0-11.8 9.3-21 21.2-21zm211.7 63c11.2 0 21.6-4.4 29.5-12.5 7.5-7.7 11.6-18.1 11.6-29.5 0-11-4.4-21.2-12.5-29.1C421.6 4.2 411.4 0 400.8 0c-11.4 0-21.2 3.9-29.1 11.6s-12.1 17.9-12.1 28.9c0 11.8 3.7 21.6 11.4 29.7 7.6 8.6 17.8 12.7 29.6 12.7zm.2-63c11.2 0 20.6 9.4 20.6 21 0 13.1-9.4 22.2-20.8 22.2-11 0-21-9.8-21-22.2 0-11.8 9.4-21 21.2-21zM11.2 70.4c7.9 8.3 17.9 12.7 29.7 12.7 13.5 0 26.4-6.6 34.1-17.9 4.6-6.6 6.9-14.3 6.9-23.5 0-1.7-.2-3.5-.2-5.2H36.2v16H59c-3.9 7.1-10.6 10.8-18.1 10.8-11 0-21-9.8-21-22.4 0-11.4 9.1-21 21-21 6.2 0 11.4 2.5 16.4 7.7h22.4C73.4 10.4 58.4 0 41.1 0c-11.4 0-21.2 3.9-29 11.8C4.2 19.5 0 29.7 0 40.7c0 11.9 3.7 21.6 11.2 29.7zm95.2-14.7l15.4 25.8h24.1L126.3 54c11.4-3.1 18.1-12.9 18.1-25.8 0-10-3.7-17.5-10.8-22.4-5.4-3.7-11.8-4.4-20.2-4.4H86.9v80h19.5V55.7zm0-36.4h5.4c8.7 0 12.9 2.7 12.9 9.4 0 7.3-4.8 9.8-14.3 9.8h-3.7V19.3h-.3z"/>
</svg>