<svg viewBox="0 0 24 24"><path fill="var(--color-letterboxd-orange, currentColor)" d="M18.92 7.92a4.08 4.08 0 1 1-3.46 6.24 4 4 0 0 0 0-4.32l.03-.04a4.1 4.1 0 0 1 3.36-1.88z"/><path fill="var(--color-letterboxd-green, currentColor)" d="M12 7.92c1.46 0 2.74.77 3.46 1.92a4 4 0 0 0 0 4.32l-.03.04a4.1 4.1 0 0 1-3.36 1.88H12a4.1 4.1 0 0 1-3.46-1.92 4 4 0 0 0 0-4.32l.03-.04a4.1 4.1 0 0 1 3.36-1.88z"/><path fill="var(--color-letterboxd-blue, currentColor)" d="M5.08 7.92c1.46 0 2.74.77 3.46 1.92a4 4 0 0 0 0 4.32l-.03.04a4.1 4.1 0 0 1-3.36 1.88h-.07a4.08 4.08 0 1 1 0-8.16"/></svg>
