<svg xmlns="http://www.w3.org/2000/svg" viewBox="0 0 32 32"><path d="M25.297 12.396c0-4.556-2.986-5.892-2.986-5.892-2.931-1.346-10.714-1.332-13.617 0 0 0-2.987 1.336-2.987 5.892 0 5.423-.309 12.16 4.952 13.551 1.899.502 3.53.61 4.843.535 2.382-.131 3.719-.849 3.719-.849l-.08-1.73s-1.702.535-3.615.474c-1.894-.066-3.89-.206-4.202-2.531a4.813 4.813 0 0 1-.042-.652c4.014.98 7.437.427 8.38.314 2.63-.314 4.921-1.936 5.213-3.417.46-2.334.422-5.695.422-5.695Zm-3.521 5.869H19.59V12.91c0-2.33-3-2.418-3 .324v2.93h-2.172v-2.93c0-2.743-3-2.654-3-.324v5.353h-2.19c0-5.723-.244-6.933.863-8.203 1.214-1.355 3.741-1.444 4.867.286l.543.914.544-.914c1.13-1.74 3.662-1.631 4.867-.286 1.112 1.28.863 2.484.863 8.203Z"/></svg>