<svg viewBox="0 0 24 24"><path d="M3 7H2a1 1 0 0 1 0-2h1V4c0-1.65 1.35-3 3-3h7.4a1 1 0 0 1 0 2H6a1 1 0 0 0-1 1v1h1a1 1 0 0 1 0 2H5v2h1a1 1 0 0 1 0 2H5v2h1a1 1 0 0 1 0 2H5v2h1a1 1 0 0 1 0 2H5v1a1 1 0 0 0 1 1h12a1 1 0 0 0 1-1v-7.4a1 1 0 0 1 2 0V20c0 1.65-1.35 3-3 3H6c-1.65 0-3-1.35-3-3v-1H2a1 1 0 0 1 0-2h1v-2H2a1 1 0 0 1 0-2h1v-2H2a1 1 0 0 1 0-2h1zm19.09-.67-5.02 5.01q-.54.54-1.28.76l-2.87.84-.42.06-.3-.03-.29-.1-.25-.13-.22-.18-.18-.22-.14-.26-.09-.28-.03-.3.06-.42.84-2.87q.21-.74.76-1.28l5-5.01a3.12 3.12 0 1 1 4.43 4.41m-8.85 4.43 2-.58a1 1 0 0 0 .42-.25l5.01-5.01a1.12 1.12 0 0 0-1.59-1.6l-5 5.02a1 1 0 0 0-.26.43z"/></svg>
