<svg width="150" height="66" viewBox="0 0 120 47"><title>Provi</title><path d="M25.6 20.2L23 38.7c-.4.9-2.9 2.4-6.9 2.4S9.2 39.5 8.9 38h-5c0 .5.1 1.1.2 1.6v.1c.8 3.9 5.9 6.7 12.1 6.7 6.8 0 12-3.3 12.2-7.6 0 0 3.2-22.2 3.2-22.1-1.4 1.6-6 3.5-6 3.5M16.2 0C7 0 0 4.2 0 9.8c0 .6 3.4 24.4 3.4 24.4.2 1.3.3 2 .3 2h4.9S6.8 20.8 6 15.4l-.7-4.9-.1-1c.4-1.8 4.6-4.2 10.9-4.2 6.4 0 10.7 2.5 10.9 4.3v.1c0 .1 0 .3-.1.5-.4.9-1.6 1.9-3.3 2.6-1.5.6-3.9 1.4-7.5 1.4-3.3 0-5.9-.8-7.5-1.3-.3-.1-1-.3-1-.3l.7 5.7c2.7 1 5.2 1.1 7.7 1.1 4.6 0 8.7-1.1 11.8-3 2.1-1.3 3.5-3 4.1-4.8v-.2l.2-1.8C32.4 4.2 25.4 0 16.2 0m38.3 26.4c-3.1 0-5.4-2.4-5.4-5.6 0-3.2 2.4-5.6 5.4-5.6s5.5 2.4 5.5 5.6c.1 3.1-2.4 5.6-5.5 5.6m.4-15.4c-2.8 0-4.6 1.4-5.7 2.6l-2.1-2.1h-3.5v3.8h1.6v24.8h4.3V28.3c.8.8 2.6 2.2 5.4 2.2 5.3 0 9.5-4.4 9.5-9.7 0-5.4-4.2-9.8-9.5-9.8m53.5.5l-5.2 14-5.2-14h-4.5l7.2 18.6h5l7.1-18.6h-4.4zM85 26.4c-3.1 0-5.4-2.6-5.4-5.6 0-3 2.2-5.6 5.4-5.6 3.1 0 5.3 2.6 5.3 5.6.1 3-2.2 5.6-5.3 5.6m0-15.3c-5.3 0-9.7 4.2-9.7 9.7 0 5.5 4.4 9.7 9.7 9.7 5.2 0 9.7-4.2 9.7-9.7 0-5.5-4.4-9.7-9.7-9.7m-9.4 3c.4-.5.8-1 1.2-1.4.3-.3.6-.5.8-.8-.4-.2-.9-.4-1.4-.6-1-.3-1.9-.2-1.9-.2-2 0-3.6 1.1-4.5 2.4l-2-2h-3.4v3.8H66V30h4.3V18.6c0-1.7 1.7-3 3.4-3 .2 0 .5 0 .7.1h.1c.4-.5.7-1 1.1-1.6 0 .1 0 0 0 0m39.1-2.6l-1.5 3.8h1.6v10.5h-1l-1.3 4.3h6.5V13l-1.5-1.5h-2.8zm1.9-3.5c1.7 0 3.1-1.4 3.1-3 0-1.7-1.4-3.1-3.1-3.1-1.7 0-3 1.4-3 3.1-.1 1.7 1.3 3 3 3" fill="currentColor"></path></svg>