<svg viewBox="0 0 132 161" xmlns="http://www.w3.org/2000/svg"><path fill="#fff" d="M132 26.8v66.7c-.1 30.7-23.2 41.6-43.2 52.6-6.8 3.4-13.2 7.4-19.3 11.9l-3.5 2.7-3.5-2.7c-6.1-4.4-12.6-8.4-19.3-11.9-20-11-43.1-21.9-43.2-52.6v-74l132 7.3zm0 0V10.2c-4.9-1.5-14.3-3.9-19.3-5.1 2.4.5-2.3-.6 0 0-2.2-.6 2.2.5 0 0-5-1.1-14.4-2.4-19.4-3.2 2.4.3-2.4-.4 0 0-2.3-.4 2.3.3 0 0-5.2-.6-10.1-1-19.6-1.6 2.4.1-2.4-.2 0 0-2.3-.2 2.2.2 0 0C68.6.2 59 .4 54 .5c2.4-.1-2.4 0 0 0-2.3 0 2.3-.1 0 0-1.5 0 1.5-.1 0 0-5 .3-14.4 1.3-19.4 1.9 2.4-.3-2.4.2 0 0-2.3.2 2.2-.3 0 0-5.2.7-14.5 2.6-19.5 3.7 2.4-.5-2.4.4 0 0-2.3.4 2.3-.5 0 0-1.5.3 1.4-.3 0 0-5 1.2-9.9 2.4-14.9 4v9.3L132 26.8z"/><path fill="#fff" d="M47 20.7v112.7l1.9 1c5.9 3.1 11.6 6.5 17.1 10.3 5.5-3.8 11.2-7.3 17.1-10.3l1.9-1V20.7c-12.6-1.3-25.4-1.3-38 0z"/><path fill="#e93438" d="M47 20.7c-11.5 1.1-22.9 3.1-34 6.2v66c0 22.2 15.5 30.5 33.4 40.2l.6.3V20.7zm72 6.2c-11.1-3.1-22.5-5.1-34-6.2v112.7l.6-.3c17.9-9.7 33.4-18 33.4-40.1V26.9z"/><path fill="#ddc35e" d="M124.7 28.5l-1.6-.5v64.8c0 25.7-18.8 34.6-38 45.1-6.7 3.4-13 7.4-19 11.8-6-4.4-12.4-8.4-19-11.8-19.2-10.4-38-19.4-38-45.1V28l-1.6.5-4 1.2v63.2c0 27.7 20.4 38.7 38.4 48.4l2.5 1.4c6.4 3.3 12.5 7.1 18.3 11.3l3.3 2.6 3.3-2.6c5.8-4.3 11.9-8.1 18.3-11.3l2.5-1.4c18-9.7 38.4-20.7 38.4-48.4V29.7l-3.8-1.2z"/><path fill="#fff" d="M109 76.2l-3.2-11.8c-.1-.3-.2-.7-.2-1 0-.2.1-.4.2-.6h-7.6c.1.2.2.4.2.6 0 .3-.1.7-.2 1L95 76.2c-1.1 4-1.6 5.7-2.6 6.7h6.8c-.6-.4-.9-1.1-.9-1.8.1-1.2.4-2.4.7-3.6l.2-.9h5.6l.2.9c.3 1.2.6 2.4.7 3.6 0 .7-.3 1.4-.9 1.8h6.8c-1-1-1.5-2.7-2.6-6.7zm-7-2.8h-2l1.6-6.9c.2-.7.3-1.4.4-2.1 0 .1.1.7.4 2.1l1.6 6.9h-2zm-62.4-.7c0-8.2.1-8.3.7-9.4l.3-.5s-1.1.1-4 .1c-2.7 0-3-.1-3-.1l-3 8.1c-.2.4-.3.8-.5 1.3-.1-.4-.3-.9-.5-1.3l-3-8.1s-.3.1-3 .1c-3 0-4-.1-4-.1l.3.5c.6 1.1.7 1.2.7 9.4 0 8.4-.1 8.6-.7 9.7l-.4.5s1.1-.1 3-.1 2.9.1 2.9.1l-.3-.5c-.6-1.1-.7-1.2-.7-9.4v-4.6c.4 1.3.9 2.6 1.5 3.9l4.1 9 4.1-9c.6-1.3 1-2.5 1.4-3.9V73c0 8.2-.1 8.3-.7 9.4l-.3.5s1-.1 2.9-.1 3 .1 3 .1l-.3-.5c-.3-1-.5-1.2-.5-9.7z"/><path fill="#e93438" d="M71.6 72.9l8.2 7.9-11-3.1-2.8 11-2.8-11-11 3.1 8.2-7.9-8.2-8 11 3.1L66 57l2.8 11 11-3.1-8.2 8z"/><path fill="#ddc35e" d="M128.5 22.8V14c-4.6-1.4-9.3-2.7-14.1-3.8v7.1c2.3.5 4.6 1.1 6.8 1.7v1.7c-2.1-.6-4.3-1.1-6.4-1.6l-.4-.1-4.2-.9V9.2c-4.7-1-9.4-1.8-14.2-2.5v7.1c2.3.3 4.6.7 6.9 1.1v1.7c-2.2-.4-4.3-.7-6.5-1H96l-4.2-.6V6.2c-4.7-.6-9.5-1-14.3-1.3V12c2.3.1 4.7.3 7 .5v1.7c-2.2-.2-4.4-.3-6.5-.5h-.5l-4.3-.1V4.7c-4.8-.1-9.6-.1-14.4 0v7.1c2.3-.1 4.7-.1 7-.1v1.7c-2.2 0-4.4 0-6.6.1h-.5c-1.4 0-2.8.1-4.2.2V4.9c-4.7.3-9.5.7-14.3 1.3v7.1c2.3-.3 4.7-.5 7-.7v1.7c-2.2.2-4.4.4-6.5.7l-.4.1-4.2.6v-9c-4.9.7-9.6 1.5-14.4 2.5v7.1c2.3-.5 4.6-.9 6.9-1.3v1.7c-2.2.4-4.3.8-6.5 1.3l-.4.1c-1.4.3-2.8.6-4.1.9v-8.8c-4.7 1.1-9.4 2.3-14.1 3.8v7.1c2.3-.7 4.5-1.3 6.8-2v1.7c-2.3.6-4.5 1.3-6.8 2v2.7c2.3-.7 4.5-1.3 6.8-2l.4-.1 2.3-.6v-7.1l-2.3.6-.4.1c-1.4.4-2.8.8-4.1 1.2v-1.8c2.9-.8 5.8-1.6 8.7-2.3v8.9c2.3-.6 4.6-1.1 6.9-1.6l.4-.1c2.1-.4 4.3-.9 6.5-1.3l.4-.1 2.3-.4v-7c-.8.1-1.5.3-2.3.4l-.4.1c-1.5.2-2.9.4-4.2.7v-1.7c2.9-.6 5.8-1.1 8.8-1.6v8.9c2.3-.4 4.6-.7 6.9-1l.4-.1c2.2-.3 4.4-.5 6.5-.7l2.8-.2V9.6l-2.3.2h-.4c-1.4.1-2.8.3-4.2.4V8.5c2.9-.3 5.9-.6 8.9-.8v8.9c2.3-.1 4.7-.3 7-.4h.4c2.2-.1 4.4-.1 6.6-.1h2.7v-7h-2.8c-1.4 0-2.8 0-4.2.1V7.3c3-.1 5.9-.1 8.9 0v8.9c2.3.1 4.7.1 7 .3h.4c2.2.1 4.4.3 6.5.5h.4l2.3.2v-7.1l-2.4-.2h-.2c-1.5-.1-2.9-.3-4.3-.3V7.8c3 .2 5.9.5 8.9.8v8.9c2.3.3 4.6.5 7 .9l.4.1c2.2.3 4.3.7 6.5 1l.4.1 2.3.4v-7.2l-2.3-.4-.5-.1c-1.4-.3-2.8-.5-4.2-.7V9.8c2.9.5 5.9 1 8.8 1.6v8.9l6.9 1.5.4.1c2.1.5 4.3 1 6.4 1.6l.4.1 2.3.6v-7.1c-.8-.2-1.5-.4-2.3-.6l-.4-.1c-1.4-.4-2.7-.7-4.1-1.1v-1.8c2.9.7 5.8 1.5 8.7 2.3v8.9l2.7.8v-2.7z"/></svg>