<svg xmlns="http://www.w3.org/2000/svg" viewBox="0 0 230.2 32"><path fill="currentColor" d="M49.25 7.5h-13v3.85h4.5V25h4V11.35h4.5Zm7.7 5v6.825c0 1.775-.95 2.575-2.325 2.575a2.062 2.062 0 0 1-2.175-2.275V12.5H48.7v7.675c0 3.375 2.15 5.175 4.675 5.175a4.275 4.275 0 0 0 3.575-1.525V25h3.75V12.5Zm10.25 2.225V12.5h-3.75V25h3.75v-5.65c0-2.475 2.2-3.1 3.75-2.85v-4.25a3.754 3.754 0 0 0-3.75 2.475ZM81.4 12.5v1.175a4.7 4.7 0 0 0-3.725-1.525c-3.275 0-5.975 2.875-5.975 6.6s2.7 6.6 5.975 6.6a4.7 4.7 0 0 0 3.725-1.525V30h3.75V12.5Zm-2.975 9.3a2.855 2.855 0 0 1-2.975-3.05 2.855 2.855 0 0 1 2.975-3.05 2.855 2.855 0 0 1 2.975 3.05 2.855 2.855 0 0 1-2.975 3.05Zm17.55-9.3v6.825c0 1.775-.95 2.575-2.325 2.575a2.062 2.062 0 0 1-2.175-2.275V12.5h-3.75v7.675c0 3.375 2.15 5.175 4.675 5.175a4.275 4.275 0 0 0 3.575-1.525V25h3.75V12.5Zm12.5 12.85a6.552 6.552 0 0 0 6.625-6.6 6.552 6.552 0 0 0-6.625-6.6 6.552 6.552 0 0 0-6.625 6.6 6.552 6.552 0 0 0 6.625 6.6Zm0-3.65a2.8 2.8 0 0 1-2.875-2.95 2.8 2.8 0 0 1 2.875-2.95 2.8 2.8 0 0 1 2.875 2.95 2.8 2.8 0 0 1-2.875 2.95ZM119.1 11.4a2.273 2.273 0 0 0 2.25-2.25 2.273 2.273 0 0 0-2.25-2.25 2.273 2.273 0 0 0-2.25 2.25 2.273 2.273 0 0 0 2.25 2.25ZM117.225 25h3.75V12.5h-3.75Zm9.925-8.85c0-.45.4-.7 1.05-.7a1.815 1.815 0 0 1 1.675 1.1l3.2-1.725a5.469 5.469 0 0 0-4.875-2.675c-2.6 0-4.9 1.375-4.9 4.1 0 4.325 6.15 3.6 6.15 4.975 0 .5-.45.775-1.35.775a2.053 2.053 0 0 1-2.125-1.475l-3.25 1.85c.975 2.025 2.875 2.975 5.375 2.975 2.7 0 5.2-1.225 5.2-4.1 0-4.625-6.15-3.675-6.15-5.1Zm11.25 4.1h8.875a7.267 7.267 0 0 0 .15-1.5 6.311 6.311 0 0 0-6.35-6.6 6.409 6.409 0 0 0-6.65 6.6c0 3.725 2.65 6.6 6.925 6.6a6.343 6.343 0 0 0 5.45-2.575l-3-1.725a3.264 3.264 0 0 1-2.4.95 2.845 2.845 0 0 1-3-1.75Zm-.075-2.8a2.581 2.581 0 0 1 2.725-1.975 2.573 2.573 0 0 1 2.65 1.975Zm27.1-9.95v6.7h-5.5V7.5h-4V25h4v-6.95h5.5V25h4V7.5Zm10.225 12.75h8.875a7.268 7.268 0 0 0 .15-1.5 6.311 6.311 0 0 0-6.35-6.6 6.409 6.409 0 0 0-6.65 6.6c0 3.725 2.65 6.6 6.925 6.6a6.343 6.343 0 0 0 5.45-2.575l-3-1.725a3.264 3.264 0 0 1-2.4.95 2.845 2.845 0 0 1-3-1.75Zm-.075-2.8a2.581 2.581 0 0 1 2.725-1.975 2.573 2.573 0 0 1 2.65 1.975Zm20.175-4.95v1.175a4.7 4.7 0 0 0-3.725-1.525c-3.275 0-5.975 2.875-5.975 6.6s2.7 6.6 5.975 6.6a4.7 4.7 0 0 0 3.725-1.525V25h3.75V12.5Zm-2.975 9.3a2.855 2.855 0 0 1-2.975-3.05 2.855 2.855 0 0 1 2.975-3.05 2.855 2.855 0 0 1 2.975 3.05 2.855 2.855 0 0 1-2.975 3.05Zm9.475 3.2H206V6.75h-3.75Zm13.825-8.9v-3.6H213.5V9l-3.75 1.125V12.5h-2v3.6h2v4.425c0 3.5 1.425 4.975 6.325 4.475v-3.4c-1.65.1-2.575 0-2.575-1.075V16.1Zm9.45-3.95a4.275 4.275 0 0 0-3.575 1.525V7.5h-3.75V25h3.75v-6.825c0-1.775.95-2.575 2.325-2.575a2.062 2.062 0 0 1 2.175 2.275V25h3.75v-7.675c0-3.375-2.15-5.175-4.675-5.175Z"/><path fill="currentColor" d="M16 32v-8h8v8Zm-8-8v-8H0V8h8V0h8v8h8v8h-8v8Z"/></svg>