<svg xmlns="http://www.w3.org/2000/svg" viewBox="0 0 32 32" id="icon-twitter" class="ma-icon-social">
  <title>Twitter</title>
  <circle cx="16" cy="16" r="16"/>
  <path d="M13.1 24.4c7.1 0 11-5.9 11-11v-.5c.8-.5 1.4-1.2 1.9-2-.7.3-1.4.5-2.2.6.8-.5 1.4-1.2 1.7-2.1-.7.4-1.6.8-2.4.9-.7-.8-1.7-1.2-2.8-1.2-2.1 0-3.9 1.7-3.9 3.9 0 .3 0 .6.1.9-3.2-.2-6-1.7-8-4-.3.5-.5 1.2-.5 1.9 0 1.3.7 2.5 1.7 3.2-.6 0-1.2-.2-1.7-.5 0 1.9 1.3 3.4 3.1 3.8-.3.1-.7.1-1 .1-.2 0-.5 0-.7-.1.5 1.5 1.9 2.6 3.6 2.7-1.3 1-3 1.6-4.8 1.6-.3 0-.6 0-.9-.1 1.6 1.3 3.6 1.9 5.8 1.9"/>
</svg>