<svg xmlns="http://www.w3.org/2000/svg" style="position: absolute; width: 0; height: 0; overflow: hidden;" aria-hidden="true" hidden>
  <defs>
    <symbol id="icon-ma-shield" viewBox="0 0 125 152">
      <path style="fill: transparent" d="M0 9.4v78.9c0 10.7 3 17.5 5.5 21.4 7.7 12.4 19.7 13.7 39.1 27.4C52.9 143 59 148.6 62.5 152c4.6-4.3 11.6-10.4 21.1-16.6 17.6-11.6 27.7-13.3 35-24.2 3-4.5 6.3-11.7 6.4-22.9V9.4c-9.2-2.8-20.1-5.5-32.5-7.2C81.4.5 71.3 0 62.5 0c-9.1 0-19.6.6-31.1 2.3C19.4 4.1 8.9 6.7 0 9.4z" role="presentation"/>
      <path fill="#ffffff" d="M43.5 16.1v112.7l1.9 1c5.9 3.1 11.6 6.5 17.1 10.3 5.5-3.8 11.2-7.3 17.1-10.3l1.9-1V16.1c-12.6-1.3-25.4-1.3-38 0zm19 72.2z" role="presentation"/>
      <path fill="#e93438" d="M43.5 16.1c-11.5 1.1-22.9 3.1-34 6.2v66c0 22.2 15.5 30.5 33.4 40.2l.6.3V16.1zM115.5 22.3c-11.1-3.1-22.5-5.1-34-6.2v112.7l.6-.3c17.9-9.7 33.4-18 33.4-40.1V22.3z" role="presentation"/>
      <path fill="#ddc35e" d="M121.2 23.9l-1.6-.5v64.8c0 25.7-18.8 34.6-38 45.1-6.7 3.4-13 7.4-19 11.8-6-4.4-12.4-8.4-19-11.8-19.2-10.4-38-19.4-38-45.1V23.4l-1.6.5-4 1.2v63.2C0 116 20.4 127 38.4 136.7l2.5 1.4c6.4 3.3 12.5 7.1 18.3 11.3l3.3 2.6 3.3-2.6c5.8-4.3 11.9-8.1 18.3-11.3l2.5-1.4c18-9.7 38.4-20.7 38.4-48.4V25.1l-3.8-1.2z" role="presentation"/>
      <path fill="#ffffff" d="M105.5 71.6l-3.2-11.8c-.1-.3-.2-.7-.2-1 0-.2.1-.4.2-.6h-7.6c.1.2.2.4.2.6 0 .3-.1.7-.2 1l-3.2 11.8c-1.1 4-1.6 5.7-2.6 6.7h6.8c-.6-.4-.9-1.1-.9-1.8.1-1.2.4-2.4.7-3.6l.2-.9h5.6l.2.9c.3 1.2.6 2.4.7 3.6 0 .7-.3 1.4-.9 1.8h6.8c-1-1-1.5-2.7-2.6-6.7zm-7-2.8h-2l1.6-6.9c.2-.7.3-1.4.4-2.1 0 .1.1.7.4 2.1l1.6 6.9h-2zM36.1 68.1c0-8.2.1-8.3.7-9.4l.3-.5s-1.1.1-4 .1c-2.7 0-3-.1-3-.1l-3 8.1c-.2.4-.3.8-.5 1.3-.1-.4-.3-.9-.5-1.3l-3-8.1s-.3.1-3 .1c-3 0-4-.1-4-.1l.3.5c.6 1.1.7 1.2.7 9.4 0 8.4-.1 8.6-.7 9.7l-.4.5s1.1-.1 3-.1 2.9.1 2.9.1l-.3-.5c-.6-1.1-.7-1.2-.7-9.4v-4.6c.4 1.3.9 2.6 1.5 3.9l4.1 9 4.1-9c.6-1.3 1-2.5 1.4-3.9v4.6c0 8.2-.1 8.3-.7 9.4l-.3.5s1-.1 2.9-.1 3 .1 3 .1l-.3-.5c-.3-1-.5-1.2-.5-9.7z" role="presentation"/>
      <path fill="#e93438" d="M68.1 68.3l8.2 7.9-11-3.1-2.8 11-2.8-11-11 3.1 8.2-7.9-8.2-8 11 3.1 2.8-11 2.8 11 11-3.1z" role="presentation"/>
      <path fill="#ddc35e" d="M125 18.2V9.4c-4.6-1.4-9.3-2.7-14.1-3.8v7.1c2.3.5 4.6 1.1 6.8 1.7v1.7c-2.1-.6-4.3-1.1-6.4-1.6l-.4-.1-4.2-.9V4.6c-4.7-1-9.4-1.8-14.2-2.5v7.1c2.3.3 4.6.7 6.9 1.1V12c-2.2-.4-4.3-.7-6.5-1h-.4l-4.2-.6V1.6C83.6 1 78.8.6 74 .3v7.1c2.3.1 4.7.3 7 .5v1.7c-2.2-.2-4.4-.3-6.5-.5H74L69.7 9V.1C64.9 0 60.1 0 55.3.1v7.1c2.3-.1 4.7-.1 7-.1v1.7c-2.2 0-4.4 0-6.6.1h-.5c-1.4 0-2.8.1-4.2.2V.3c-4.7.3-9.5.7-14.3 1.3v7.1c2.3-.3 4.7-.5 7-.7v1.7c-2.2.2-4.4.4-6.5.7l-.4.1-4.2.6v-9c-4.9.7-9.6 1.5-14.4 2.5v7.1c2.3-.5 4.6-.9 6.9-1.3v1.7c-2.2.4-4.3.8-6.5 1.3l-.4.1c-1.4.3-2.8.6-4.1.9V5.6C9.4 6.7 4.7 7.9 0 9.4v7.1c2.3-.7 4.5-1.3 6.8-2v1.7c-2.3.6-4.5 1.3-6.8 2v2.7c2.3-.7 4.5-1.3 6.8-2l.4-.1 2.3-.6v-7.1l-2.3.6-.4.1c-1.4.4-2.8.8-4.1 1.2v-1.8c2.9-.8 5.8-1.6 8.7-2.3v8.9c2.3-.6 4.6-1.1 6.9-1.6l.4-.1c2.1-.4 4.3-.9 6.5-1.3l.4-.1 2.3-.4v-7c-.8.1-1.5.3-2.3.4l-.4.1c-1.5.2-2.9.4-4.2.7V6.8c2.9-.6 5.8-1.1 8.8-1.6v8.9c2.3-.4 4.6-.7 6.9-1l.4-.1c2.2-.3 4.4-.5 6.5-.7l2.8-.2V5l-2.3.2h-.4c-1.4.1-2.8.3-4.2.4V3.9c2.9-.3 5.9-.6 8.9-.8V12c2.3-.1 4.7-.3 7-.4h.4c2.2-.1 4.4-.1 6.6-.1H65.1v-7h-2.8c-1.4 0-2.8 0-4.2.1V2.7c3-.1 5.9-.1 8.9 0v8.9c2.3.1 4.7.1 7 .3h.4c2.2.1 4.4.3 6.5.5h.4l2.3.2V5.5l-2.4-.2H81c-1.5-.1-2.9-.3-4.3-.3V3.2c3 .2 5.9.5 8.9.8v8.9c2.3.3 4.6.5 7 .9l.4.1c2.2.3 4.3.7 6.5 1l.4.1 2.3.4V8.2l-2.3-.4-.5-.1c-1.4-.3-2.8-.5-4.2-.7V5.2c2.9.5 5.9 1 8.8 1.6v8.9l6.9 1.5.4.1c2.1.5 4.3 1 6.4 1.6l.4.1 2.3.6v-7.1c-.8-.2-1.5-.4-2.3-.6l-.4-.1c-1.4-.4-2.7-.7-4.1-1.1V8.9c2.9.7 5.8 1.5 8.7 2.3v8.9l2.7.8v-2.7z" role="presentation"/>
    </symbol>
    <symbol id="icon-pi-logo" viewBox="0 0 245 245">
      <style>
        .fill-white{fill:#fff}
        .fill-gold{fill:#ddc35e}
        .fill-gold-dark{fill:#d6a92b}
        .fill-gold-light{fill: #ffd45a}
        .fill-red{fill:#e93438}
        .fill-red-light{fill:#ffeee3}
      </style>
      <path id="Background" style="fill: transparent" d="M235 113C235 51 184.6.5 122.5.5S10 51 10 113c0 19.9 5.2 38.6 14.3 54.8L11.5 216h23.8l7.6 28.5h159.3l7.6-28.5h24l-12.3-49.2c8.6-16 13.5-34.3 13.5-53.8z" role="presentation"/>
      <path id="Flag-Center" class="fill-white" d="M152.7 170.4V27.6c-9.7-3.4-19.9-5.2-30.2-5.2s-20.5 1.7-30.2 5.2v142.8h60.4z" role="presentation"/>
      <path id="Flag-Red" class="fill-red" d="M52.4 170.4c-12.9-15.8-20.5-36-20.5-57.4 0-38.4 24.2-72.6 60.4-85.5v142.8H52.4zm140.2 0c12.9-15.8 20.5-36 20.5-57.4 0-38.4-24.2-72.7-60.4-85.5v142.8h39.9z" role="presentation"/>
      <path id="Ring" class="fill-gold" d="M206.2 168.5l2.8 1.9h-4.1c.4-.6.9-1.2 1.3-1.9zm24.8-55.8c-.1 5.6-.5 11.1-1.2 16.7l-9.7-1.4c-.6 3.7-1.2 7.5-2.3 11.2l1.6.5c.7-2.4 1.2-4.8 1.7-7.2l8 1.6c-.8 5.5-2.6 10.8-4.5 16l-9.2-3.3c-.3.9-.6 1.7-1 2.5-1.1 2.7-2.2 5.4-3.5 7.9l1.5.8c1.1-2.1 2.2-4.4 3-6.7l7.5 3.1c-.2.7-.5 1.3-.8 1.9v.1c-2.1 4.4-4.2 8.7-6.6 12.9l-8.4-5.1c-1.3 2.1-2.7 4.3-4.1 6.3h-4.1c.6-.8 1.2-1.6 1.7-2.4v-.1c.8-1.1 1.5-2.2 2.2-3.3 1-1.6 1.9-3.2 2.9-4.8l8.5 4.9c1.6-2.8 3.1-5.7 4.3-8.6l-1.5-.7c-1 2.3-2.2 4.6-3.3 6.9l-7.2-3.8c2.6-5.1 4.9-10.2 6.7-15.7 3.1 1 6.2 2.1 9.3 3.1 1-3 1.8-6.1 2.5-9.2l-1.6-.4c-.6 2.5-1.2 4.9-1.9 7.4-2.6-.5-5.2-1.5-7.8-2.3 1.6-5.5 2.8-11 3.5-16.7h.3l9.5 1.2c0-3.2.6-6.4.7-9.6H226c-.1 2.5-.2 5-.4 7.6l-8.1-.8c.4-5.7.6-11.4.2-17.1h.3v-.1l9.5-.7c-.2-3.1-.6-6.3-1.1-9.4l-1.7.3c.4 2.3.9 5.2.9 7.5l-8.1.8c-.2-5.6-1.5-11.5-3.1-16.8l.4-.1v-.1l9.1-2.5c-.9-3.1-1.8-6.1-3-9.1l-1.6.6c.8 2.2 1.8 4.5 2.3 6.8 0 .1.1.3.1.4l-7.6 2.2c-1.2-4.1-2.7-8-4.4-11.8V74c-.5-1-.9-1.9-1.3-2.9V71c-.2-.3-.3-.6-.5-1l8.8-4.4c-1.5-2.9-3-5.7-4.8-8.4l-1.4.9c1.4 2.1 2.7 4.4 3.8 6.6l-7.2 3.8c-.3-.6-.6-1.1-.9-1.6v-.1c-2.5-4.4-5.2-8.6-8.3-12.5l.1-.1 7.7-5.9c-2.1-2.6-4.2-5.1-6.5-7.4l-1.2 1.2c1.7 1.8 3.4 3.8 5 5.7l-6.3 5.2c-3.6-4.4-7.6-8.5-11.8-12.2 2.1-2.5 4.3-5 6.4-7.4-1.4-1.2-2.9-2.4-4.3-3.6h-.1c-1-.8-2.1-1.5-3.1-2.3l-1 1.4c2.1 1.5 4.1 3 6.1 4.6l-5.2 6.3c-3-2.4-6.1-4.6-9.2-6.7-1.6-1-3.2-1.9-4.8-2.9 1.6-2.9 3.2-5.7 4.9-8.6-2.8-1.6-5.7-3-8.6-4.3l-.7 1.5c1.4.6 2.7 1.2 4.1 1.9h.1l2.7 1.4-3.8 7.2c-3.4-1.7-6.8-3.4-10.3-4.7-1.8-.7-3.5-1.3-5.3-1.9l3.1-9.3c-3-1-6.3-1.5-9.3-2.6l-.4 1.7c2.5.5 4.9 1.2 7.4 1.9l-2.3 7.8c-5.5-1.6-11-2.8-16.8-3.5l1.2-9.7c-3.2-.4-6.4-.6-9.6-.7V10c2.5.1 5 .3 7.6.5l-.8 8.1c-.9-.1-1.8-.2-2.7-.2l-.1-.2v.2c-4.8-.4-9.5-.2-14.3 0l-.7-9.8c-1.3.1-2.6.2-3.8.4l-.1-.2V9c-1.9.1-3.8.4-5.7.7l.3 1.7c2.4-.4 5.1-.8 7.5-.9l.8 8.1c-5.5.1-11.5 1.6-16.8 3.1l-2.6-9.5c-3.1.9-6.2 1.8-9.1 3l.6 1.6c2.3-.9 4.8-1.8 7.2-2.4l2.4 7.8c-4.1 1.2-8 2.6-11.9 4.4h-.1c-1.3.6-2.6 1.2-3.9 1.9-1.5-2.9-3-5.8-4.4-8.8-2.9 1.4-5.7 3-8.4 4.8l.9 1.4c2.1-1.4 4.3-2.7 6.6-3.8l3.8 7.2c-5.1 2.5-9.9 5.8-14.3 9.3l-6-7.7c-2.5 2-5 4.1-7.4 6.3l1.2 1.2c1.9-1.7 3.8-3.4 5.8-5l5.2 6.3c-4.4 3.7-8.5 7.6-12.3 11.9l-7.4-6.4c-2.1 2.4-4 5-5.9 7.6l1.4 1c1.5-2.1 3.1-4.1 4.6-6.1l6.3 5.2c-3.5 4.5-6.8 9.2-9.7 14.2l-8.5-4.8c-1.6 2.8-3 5.7-4.4 8.6l1.5.7c1-2.3 2.2-4.6 3.4-6.8l7.2 3.8c-1.7 3.4-3.3 6.8-4.8 10.3-.7 1.7-1.3 3.5-1.9 5.3L23 81.1c-1.1 3-1.8 6.2-2.5 9.2l1.7.4c.5-2.5 1.2-4.9 1.9-7.4l7.8 2.4c-1.6 5.5-2.8 11-3.5 16.7l-9.8-1.2c0 3.2-.6 6.4-.7 9.6H19c0-2.5.2-5.1.4-7.6l8.1.8c-.4 5.7-.7 11.4-.2 17.1l-9.8.7c.2 3.2.6 6.4 1.2 9.6l1.7-.3c-.4-2.3-.9-5.2-.9-7.5l8.1-.8c.3 5.6 1.6 11.4 3.1 16.8l-9.5 2.7c.8 3.1 1.8 6.2 3 9.1l1.6-.6c-.9-2.3-1.8-4.8-2.4-7.2l7.8-2.4c1.5 5.5 3.7 10.8 6.3 15.8l-8.8 4.4c1.5 2.9 3 5.7 4.8 8.4l1.4-.9c-1.4-2.1-2.7-4.3-3.8-6.6l7.2-3.8c2 4.5 5 8.7 8 12.6h-4c-1.9-2.7-3.8-5.5-5.4-8.3l-1.5.8c1.2 2.1 2.6 4.2 3.9 6.3l-1.8 1.2h-7c-2.3-3.6-4.4-7.3-6.1-11.2L33 155c-1.5-3.5-2.9-7-4.2-10.6l-1.6.5c.8 2.3 1.7 4.6 2.5 6.9l-7.5 3.1c-2-5.1-4.1-10.4-5.2-15.8l9.5-2.4c-.8-3.7-1.5-7.4-2.1-11.2l-1.7.2c.2 2.4.7 4.9 1.2 7.3l-8 1.6c-1-5.5-1.8-11-2-16.6l9.8-.5c-.1-3.8-.2-7.6.1-11.4l-1.7-.1c0 2.5-.2 4.9-.2 7.4H14c.1-5.6.5-11 1.2-16.6l9.8 1.5c.6-3.7 1.2-7.6 2.3-11.1l-1.6-.5c-.7 2.3-1.2 4.8-1.7 7.2l-8-1.6c.4-5.4 2.8-11 4.5-16.1l9.2 3.4c.7-2.1 1.6-4.3 2.6-6.3v-.1c.7-1.4 1.2-2.8 1.9-4.1l-1.5-.8c-.8 1.6-1.5 3.2-2.2 4.8v.1c-.3.6-.6 1.2-.8 1.8l-7.6-3.2c1.9-5.2 4.7-10.1 7.5-14.9L38 62c2-3.2 4.1-6.5 6.5-9.4l-1.3-1c-1.5 1.9-3 3.9-4.3 6l-6.8-4.5c2.8-4.7 6.6-9 10.2-13.1l7.3 6.6c2.6-2.8 5.3-5.5 8.2-8l-1.1-1.3c-1.9 1.6-3.7 3.3-5.5 5l-5.8-5.8c4-3.8 8.1-7.6 12.6-10.9l5.8 7.9c3.2-2.1 6.3-4.3 9.6-6.3l-.8-1.5c-2.1 1.2-4.2 2.6-6.3 3.9L62 23c4.6-3 9.4-6.1 14.5-8.2l4.2 8.9c3.5-1.5 6.9-3 10.5-4.2l-.5-1.6c-2.3.8-4.6 1.7-6.9 2.5l-3.1-7.5c5.1-2 10.4-4.1 15.8-5.2l2.4 9.5c3.7-.9 7.4-1.6 11.2-2.1l-.1-1.7c-2.4.2-4.9.7-7.3 1.1l-1.6-8c5.5-1 11-1.9 16.6-2l.4 9.9c3.8-.1 7.6-.2 11.4.1l.1-1.7c-2.3-.5-5-.3-7.4-.3v-8c5.6.1 11.1.5 16.6 1.2l-1.4 9.8c3.7.6 7.5 1.3 11.2 2.4l.5-1.6c-2.4-.7-4.8-1.1-7.2-1.7l1.6-8c5.5.9 10.8 2.6 16.1 4.5l-3.3 9.3c.9.3 1.7.7 2.5 1h.1l3.6 1.5h.1c1.4.6 2.8 1.2 4.1 2l.8-1.5c-2.1-1.1-4.4-2.2-6.7-3l3.1-7.5c5.2 1.9 10.1 4.7 14.9 7.5l-5.1 8.4c3.2 1.9 6.4 4.1 9.4 6.5l1-1.3c-2-1.5-3.9-3-6-4.4l4.5-6.8c4.7 3 8.9 6.6 13.1 10.2l-6.6 7.3c2.8 2.7 5.6 5.4 8.1 8.3l1.3-1.1c-1.6-1.9-3.3-3.7-5-5.5l5.8-5.8c3.8 4 7.6 8.1 10.9 12.6l-7.9 5.8c2.3 3 4.3 6.2 6.2 9.5l1.5-.8c-1.2-2.1-2.5-4.2-3.9-6.3l6.8-4.3c2.6 4.1 5 8.2 7.2 12.5v.1c.3.6.6 1.3.9 1.9l-8.9 4.2c.2.4.4.8.5 1.2v.1c1.4 3 2.8 6.2 3.7 9.4l1.6-.5c-.8-2.3-1.7-4.6-2.5-6.9l7.5-3.1c2 5.1 4.1 10.3 5.2 15.7l-9.5 2.4c.9 3.7 1.6 7.4 2.1 11.2l1.7-.2c-.2-2.4-.7-4.8-1.1-7.2l8-1.6c1 5.5 1.8 11 2 16.5l-9.8.5c.1 3.8.2 7.6-.1 11.4l1.7.1c0-2.4.2-4.9.2-7.4h7.7zM26.5 135.4c.1 0 .1 0 0 0zm47.8-105zm130.8 34.4z" role="presentation"/>
      <path id="Outline-Idol" class="fill-white" d="M157.9 170.4l-.4-3.7c8.2.7 16.6-1.3 23.8-5.3 7.3-4.2 13.2-10.5 17-17.9 2.3-4.5 3.9-9.3 4.8-14.3 1-5.2 1.4-10.7 1.4-16 0-4.1-2-8.2-5.2-10.8-1.2-1-2.6-1.7-3.9-2.6-1.4-.9-2.9-1.8-4.5-2.3-4.3-1.6-9.2-1.2-13.3.9-5.1 2.6-9 8-8.3 13.9-2.4 2.5-3.1 6.3-1.8 9.5.7 1.6 1.8 3 3.3 4 1.3.9 2.8 1.2 4.3 1.6-1 3.6-3.2 6.8-6.1 9-2.5 1.9-5.2 2.8-8.3 2.9.3-1.4.2-3.1.2-4.5v-8.2-22.3-13.5c0-9.5-2.2-19.1-7.6-27-5.4-7.9-13.8-13.1-23.1-15-1.2-.3-2.5-.5-3.8-.6 0 0-1.5-4.3-3.2-5.6.7-5.5-.7-12.2-6.4-14.4-5.6-2.1-13.3 1.5-13.8 7.9-.2 3.6 1.5 7.2 3.4 10.1-.6 1.3-.9 2.7-.8 4.1-8.5 3.1-15.4 9.2-19.7 17.1-3.9 7.3-5.3 15.5-5.3 23.6v45.7c-4.3 2.2-8.4 5.3-11.8 8.6-3.9 3.8-7 8.3-9.1 13.3-1.5 3.7-2.5 7.7-2.9 11.7h101.1z" role="presentation"/>
      <path id="Fill" class="fill-gold-light" d="M81.3 170.4c.1-.5.2-1 .4-1.5 1.2-4.1 3.7-7.6 7.1-10.1l-1.2 11.6h67.2l-.9-8.4c2.3.4 4.6.6 6.9.6 2.3 0 4.6-.2 6.8-.6 2.5-.4 4.9-1.1 7.3-2 13.4-5.3 22.4-17.2 25.1-32.3.9-5 1.3-10 1.3-15 .1-2.4-3-6.7-3.7-6.4-.6-.7-1.3-1.4-2.2-1.9l-3.7-2.3c-5.6-3.5-12.9-1.7-16.4 3.9-1.4 2.3-1.5 5.2-.2 7.5-2.2.5-3.6 2.6-3.1 4.8.3 1.5 1.5 2.7 3 3.1l5 1.3c-.4.5-.6.9-.5 1-1.4 7.9-5.6 13.9-12.3 16.9-4.4 1.7-9.2 2-14-.6 1.8 0 3.2-1.5 3.2-3.3v-47c0-21.3-12-37.4-34.3-38 0-1.3 0-2.5-.1-3.8v-.3c-.2-1.6-1.7-2.8-3.3-2.6h-.1l-1.2.1c1.7-2.6 2.5-10.5-1-12.8-2.9-2-7.5-.2-8.3 2.8-.7 2.7 2.6 8.7 5.2 10.6-1.6.2-2.8 1.7-2.6 3.3v.4c.2 1.1.6 2.2 1.2 3.2C94.8 56.4 85.8 71 85.8 89.7v47c0 .2 0 .4.1.6-11.7 5.4-20.8 14-24.2 26-.7 2.3-1.1 4.7-1.3 7.1h20.9z" role="presentation"/>
      <path id="Detail" class="fill-gold-dark" d="M63.2 170.4c.2-2.1.6-4.3 1.2-6.3 2-7.2 7.5-16.8 21.5-23.6 1.9 1.7 4.9 1.6 6.7-.4.7-.8 1.1-1.8 1.2-2.9l5.4-2.1.2-.1.1-.1c.6-.3 1.3-.6 1.9-.8 5.2 6.9 11.9 10.5 19.8 10.5s14.4-3.5 19.6-10.3c1.8.7 3.4 1.7 4.8 3.1l2.5 2.5c3.5 3 8 4.7 12.6 4.7 2.2 0 4.5-.4 6.6-1.1h.1l.2-.1c.8-.3 1.7-.6 2.4-1.1 6.3-3.4 10.6-9.6 12.1-17.7h.5c1.4 0 2.8-.6 3.8-1.6 1.1.4 2.3.6 3.4.6 3.2 0 6.2-1.5 8.2-4-.2 1.9-.4 4-.7 6.1l-.2 1.3c-2.6 14.4-11.2 25.4-23.4 30.3-.4.2-.7.3-1 .4-1.3.5-2.6.9-4 1.1-2.7.6-5.4.9-8.1.9-2.1 0-4.3-.2-6.4-.6l-3.6-.7.4 3.7.8 8h2.8l-.9-8.4c2.3.4 4.6.6 6.9.6 2.3 0 4.6-.2 6.8-.6 2.5-.4 4.9-1.1 7.3-2 13.4-5.3 22.4-17.2 25.1-32.3.9-5 1.3-10 1.3-15 .1-2-.4-3.9-1.5-5.5-.9-1.6-2.1-2.9-3.7-3.9l-3.7-2.3c-6.2-3.8-14.4-1.9-18.3 4.3-1.4 2.2-1.7 5-.9 7.4h-.1c-2.6 1.6-3.4 5-1.8 7.5.7 1.2 1.9 2.1 3.3 2.5l4.8 1.2c-1.5 7.7-5.6 13.6-12.1 16.5-2.1.8-4.4 1.3-6.7 1.3-1.8 0-3.7-.3-5.4-1 1.5-.8 2.4-2.4 2.4-4.1v-47c0-23.2-13.6-38.5-34.9-39.4.4-.8.6-1.7.5-2.6V47c-.3-2-1.8-3.5-3.7-3.8l.2-.8c1-4.1.6-9.5-2.6-11.7-1.9-1.2-4.3-1.5-6.4-.6-1.9.7-3.4 2.2-4 4.2-.8 2.8 1.6 7.7 4.1 10.7-1.2 1-1.8 2.5-1.6 4v.3c.1.7.4 1.5.8 2.1-16 4.2-25.9 18.2-25.9 38.1v47c0 .4 0 .8.2 1.1-10.9 5.5-19.4 13.8-22.7 25.2-.7 2.3-1.1 4.7-1.3 7.1h3.1zm113.4-63.6c3.1-4.9 9.5-6.5 14.5-3.4l3.7 2.3c3.7 2.3 4.8 7.1 2.5 10.7l-.7 1.1c-1.1 1.7-2.8 3-4.8 3.4-1.2.3-2.5.3-3.8-.1l.1-.2c.7-2.9-1.1-5.9-4-6.7l-6.7-1.7c-.5-.1-.9-.2-1.4-.1-.6-1.8-.4-3.7.6-5.3zm-1.2 13.3c-1.4-.4-2.3-1.8-1.9-3.3.3-1.1 1.3-2 2.5-2 .2 0 .4 0 .7.1l6.7 1.7c.7.2 1.3.6 1.6 1.2.4.6.5 1.3.3 2-.4 1.4-1.8 2.3-3.2 1.9l-6.7-1.6zm-78.1 12.7l-3.6 1.4v-15.9c.9 3 3.5 9.2 3.6 9.3v5.2zm33.7 3.5c-3.5 1.5-4.6-.1-9.7 0h-.1c-5.1-.1-6.2 1.5-9.8 0-4.7-2-6.4-11.1-4.9-13.8 1.5-2.5 4.9-2 6.8-1.5.4.1.8.2 1.1.3 3.8 1.2 5.2 1.2 6.8 1 1.6.2 2.9.2 6.8-1 .4-.1.7-.2 1.1-.3 1.9-.5 5.3-1 6.8 1.5 1.5 2.7-.3 11.8-4.9 13.8zm16.6-.7c-.8-.8-1.7-1.6-2.7-2.2v-5.5c.1-.3.3-.5.4-.8 1.2-2.5 2.2-5.1 3-7.8v17l-.7-.7zm-7.9-5.7c.3-3.5-.4-6.9-1.4-8.7-1.7-3-5.3-4-9.9-2.8-.7.2-1.3.3-2 .4.4-.9.8-1.4 2.5-1.2l.4-2.7c-3.5-.5-5.3 1.8-5.5 3.9h-5c-.2-2.1-2.1-4.4-5.5-3.9l.4 2.7c1.7-.2 2.1.2 2.4 1.2-.7-.1-1.3-.2-1.9-.4-4.6-1.2-8.2-.2-9.9 2.8-1 1.8-1.7 5.3-1.4 8.9-6.3-9.5-8.9-23.1-8.9-33.2v-.4c2.7-11.4 29.8-6.8 39.9-16.5l.5.1c.5 5.6 4.7 7.9 8 9.8 3.2 1.8 5.3 3.1 5.8 5.8v1.2l.1.1c0 9.9-2.6 23.4-8.6 32.9zm-21.1-83.4h.2c.8 0 1.5.6 1.6 1.4v.3c0 .4-.1.9-.3 1.2-.3.3-.7.6-1.1.6l-5.2.7c-.4.1-.8 0-1.2-.3-.4-.3-.6-.7-.6-1.1V49c-.1-.9.5-1.7 1.4-1.9l5.2-.6zm-9.3-10.9c.4-1.1 1.2-2 2.3-2.3 1.2-.5 2.7-.4 3.8.3 1.2.9 2 3 1.9 5.7 0 1.6-.3 3.2-.9 4.7l-2.8.4c-2-1.9-4.8-6.9-4.3-8.8zm11.5 17.6c9.9-.1 18.2 3.1 24.1 9-15.8-3.9-32.3-3.9-48.2.1 5.9-5.8 14.1-9.1 24.1-9.1zM94.7 64.7c17.1-4.8 35.2-4.8 52.3-.1.4.5.9 1.1 1.3 1.7l-1.6-.4c-.4-.1-.9-.2-1.5-.4h-.3l-1.2 4.8h.2c.6.1 1 .2 1.4.4l2.6.7-.3.9-1.3-.3c-.8-.2-1.6-.5-2.4-.7l-2.8-.6 1.2-5.7-.2-.1-1-.2-3.5-.7-3.5-.5c-.3 0-.7-.1-1-.1h-.1l-.6 4.9h.2c.3 0 .6.1.9.1l.5.1 2.6.4-.2.9-1.3-.1-2.5-.3h-.4l-2.4-.2.5-5.8h-.2c-.5-.1-1-.1-1.5-.1l-3-.2h-2l-2.8-.1v4.8H125.1v.9l-2.5-.1h-4.2l-.2-5.8h-2.6c-1.7.1-3.5.2-5.3.4l-1.8.2.6 4.9 1.7-.2 1-.1c.5-.1 1.1-.1 1.6-.1l.1.9c-.8.1-1.7.1-2.5.2l-1.3.1h-.4l-1.6.2-.8.1-.9-5.5-1.8.2-1.7.3c-1.4.3-2.9.5-4.3.9l-1.7.4 1.2 4.7 2-.5c.8-.2 1.5-.3 2.3-.5l.2.9-.8.1-3.1.7h-.2c-.5.1-1.1.3-1.6.4l-.7.2-1.6-5.6-.5.1c.2-.4.6-.9 1-1.5zm-4.5 7.8l.5-.2.3.9-1.2.4c.1-.4.2-.7.4-1.1zM89 76l2.7-.9.2-.1h.2l1.3-.5-1.4-4.6-.6.2.6-1.2.7-.2 1.6 5.6 1.6-.4.9-.3c.6-.2 1.2-.3 1.8-.5h.2l2.8-.7.8-.2 1.8-.3-.9-4.8-1.9.4c-.8.2-1.6.3-2.4.5h-.1l-.2-.9c1.3-.3 2.7-.6 4-.8l1.4-.3 1 5.7 1.6-.2 1-.1c.6-.1 1.2-.2 1.8-.2l1.5-.2c.9-.1 1.8-.2 2.7-.2l1.7-.1-.3-4.9-1.7.1h-.2c-.6 0-1.1.1-1.7.1l-.8.1-.1-.9c1.6-.2 3.3-.3 5-.4h.5l.3 5.8h1.6l2.8-.1h1.5c.9 0 1.8 0 2.7.1l1.7.1.3-4.9-1.5-.1H122.6v-.9h.8c.6 0 1.3 0 1.9.1l2.8.2-.4 5.8h.2c.5 0 1 .1 1.4.1l2.8.3c.9.1 1.8.2 2.7.4l1.5.2 1.6.3.9-4.8-1.5-.3h-.4l-2.5-.4.1-.9 2.7.4 2.7.5-1.3 5.5h.2l.5.1c.3.1.6.1.9.2l2.5.6h.2c.9.2 1.8.5 2.6.7l1.2.3.2.1c.3.1.6.2 1 .3l.6.2L150 70l-.6-.2c-.3-.1-.5-.2-.8-.2l-.2-.1h-.1l-2.6-.7.2-.9 2.7.7c.3.1.5.2.8.2.4.8.9 1.6 1.2 2.4L150 75l1.6.5 1.4.5c.1.5.3 1 .4 1.5l-.2-.1c-20.9-7.2-43.5-7.2-64.4 0l-.2.1c.1-.5.2-1 .4-1.5zm-2 13.9c0-3.5.3-7 1-10.5l1.3-.5c20.5-7 42.8-7 63.3 0l1.2.4c.7 3.4 1.1 6.9 1.1 10.5v47c.2 1.1-.5 2.1-1.6 2.4-1.1.2-2.1-.5-2.4-1.6-.1-.3-.1-.5 0-.8V93.6c0-15.9-15.5-17.2-30-17.2s-30.1 1.3-30.1 17.2v43.3c-.2 1.1-1.3 1.8-2.3 1.6-.8-.2-1.4-.8-1.6-1.6v-47zm24.3 11.7c.5.7.5 1.7-.1 2.3a6.96 6.96 0 0 1-4 2c-2.1.3-3.8.1-5-1.1-.5-.5-.6-1.3-.4-1.9.7-2 2.4-3.4 4.5-3.8.7-.1 1.4 0 2 .2 1.2.5 2.2 1.3 3 2.3zm-24.1 55l5-3.6-1.8 17.5h-2.8l1.2-11.6c-3.4 2.5-5.9 6-7.1 10.1l-.3 1.5h-2.8c.1-.8.3-1.5.5-2.3 1.2-4.7 4.1-8.8 8.1-11.6zM144.1 96l.1 2.1c0 .3-.1.6-.4.7-.1.1-.3.1-.4.1-.1 0-.3 0-.4-.1l-2.7-1.4c-.6-.3-1.3-.5-2-.5l-8.5-.1c-.2 0-.4 0-.6-.1-.9-.4-1.3-1.4-.9-2.2l.5-1.3c.3-.7 1-1.2 1.8-1.2l7.1.1c1.6 0 3.2.7 4.4 1.8l1.6 1.6c.3.1.4.3.4.5zM114 94.5c.1.2.1.4.1.6 0 .9-.8 1.7-1.7 1.7l-8.5.1c-.7 0-1.4.2-2 .5l-2.6 1.4c-.2.2-.6.2-.8 0-.2-.2-.4-.4-.4-.7l.1-2.1c0-.2.1-.4.2-.5l1.7-1.6c1.2-1.2 2.7-1.8 4.4-1.8l7.1-.1c.8 0 1.5.5 1.8 1.2l.6 1.3zm12.2 16.1l.2.2-1.8 2.1-.3-.3c-1.2-1-2.7-1.5-4.2-1.4-1.1.1-2.2.6-2.9 1.5L115 111c1.2-1.5 2.9-2.4 4.8-2.5.9-.1 1.7 0 2.5.2-.4-1.9-.7-3.8-.8-5.8l2.8-.1c.3 3.1 1 6.8 1.9 7.8zm6.9 11.9c-1.4-.9-3.2-.3-5.5.3-2.1.7-4.2 1.1-6.4 1.2-2.1-.1-4.2-.5-6.3-1.1-2.8-.8-6-1.7-7 1.7-.3 1.1.1 2.6 1.2 4.1.9 1.2 4.6 5.3 12 5.3 6.9 0 10.4-3.4 11.7-5 1.3-1.6 1.9-3.2 1.6-4.4-.1-.9-.6-1.7-1.3-2.1zm-2.3 4.8c-.8.9-3.6 4-9.7 4-6 0-9-3.1-9.8-4.1-.5-.5-.9-1.2-1-2 .1-.3.2-.5.7-.5 1 .1 2.1.3 3.1.6 2.3.7 4.6 1.2 7 1.2 2.4-.1 4.8-.5 7.1-1.3 1.3-.4 3.1-.9 3.5-.6.1.1.2.3.2.4-.1.9-.5 1.7-1.1 2.3zm9.8-24.3c.3.7.1 1.4-.4 1.9-1.2 1.1-2.9 1.3-5 1.1-1.5-.2-2.9-.9-4-2-.6-.7-.6-1.6-.1-2.3.8-1 1.8-1.8 3-2.2.6-.2 1.3-.3 2-.2 2.1.2 3.8 1.7 4.5 3.7z" role="presentation"/>
      <path id="Fill-Wordmark" class="fill-gold-dark" d="M217.3 170.4H27.7l-11 41.6h21.6l7.6 28.5h153.2l7.5-28.5h21.7z" role="presentation"/>
      <path id="Outline-Wordmark" class="fill-gold" d="M214.2 174.4l8.9 33.6h-19.6l-.8 3-6.8 25.5H49L42.2 211l-.8-3H21.9l8.9-33.6h183.4m3.1-4H27.7l-11 41.6h21.7l7.6 28.5h153.1l7.6-28.5h21.7l-11.1-41.6z" role="presentation"/>
      <path id="Peruvian_Idol" class="fill-white" d="M48.6 194.4c-.8 0-1.6-.1-2.3-.2 0 5.5.2 6.1.9 7.3l.3.6s-1.2-.1-4.2-.1-4.2.1-4.2.1l.3-.5c.6-1.1.8-1.4.8-10.5 0-8.9-.1-9-.8-10.2l-.3-.5s1.2.1 3.2.1c1.4 0 4.3-.1 5.3-.1 3.8 0 10 .2 10 6.8.1 6.1-4.9 7.2-9 7.2zm-1.2-11h-1.1v7.7c.4.1.9.1 1.3.1 3.5 0 3.6-2.5 3.6-4.1 0-3.4-2.1-3.7-3.8-3.7zm28.7 17.4L76 202H61.1l.3-.5c.6-1.1.8-1.4.8-10.5 0-8.9-.1-9-.8-10.2l-.3-.5h14.5v2.4c0 1.7.1 2.6.1 2.6-.3-.3-.7-.6-1.1-.8-1-.5-2.2-.7-3.4-.7h-2.9v5.5h2.2c1.2.1 2.3-.1 3.4-.6.4-.2.8-.5 1.1-.8 0 0-.1.9-.1 3.2 0 2.1.1 3.1.1 3.1-.3-.3-.7-.5-1.1-.7-1.1-.5-2.2-.7-3.4-.6h-2.2v5.6H71c3.8 0 4.3-.9 5.4-2.5 0-.1-.1 1.2-.3 4.8zm20.5 1.5c-2.7 0-4-.6-5.4-3.4l-1.4-2.7c-1.2-2.3-1.5-2.9-2.5-2.9h-.4c0 7.2.2 7.2.8 8.3l.3.5s-1.3-.1-4-.1-4 .1-4 .1l.3-.5c.6-1.1.8-1.4.8-10.5 0-8.9-.1-9-.8-10.2l-.3-.5s1.3.1 3.1.1c1 0 3.8-.1 4.8-.1 5.3 0 10 .2 10 5.7 0 5.3-4.2 5.9-6 6 2.1.3 3.1 1.2 4.3 3.6l1.8 3.6c.4 1.1 1.1 2 2.2 2.5-.2-.3-.7.5-3.6.5zm-8.6-19c-.4 0-.7 0-1.1.1v6.6H88c.5 0 1.1-.1 1.6-.2 1.2-.4 1.9-1.2 1.9-3.1 0-2.7-1.3-3.4-3.5-3.4zm34.3-2.6c-.6 1.1-.8 1.4-.8 9v2.6c0 3.3-.1 5.8-1.8 7.6-1.6 1.6-3.9 2.4-7.3 2.4-3.6 0-6.1-.7-7.6-2.2s-2.1-3.7-2.1-7v-2.6c0-8.2-.1-8.6-.8-9.8l-.3-.5s1.3.1 4.2.1 4.2-.1 4.2-.1l-.3.5c-.6 1.1-.8 1.4-.8 9v4.3c0 .8 0 1.6.2 2.4.3 1.2 1.1 2.2 3.4 2.2s3.1-1 3.5-2.2c.1-.8.2-1.6.2-2.4v-3c0-8.9-.1-9-.8-10.2l-.3-.5s1.3.1 3.7.1 3.6-.1 3.6-.1l-.1.4zm21.9 6.8l-4 14.6s-1.5-.1-4.4-.1c-2.8 0-4.5.1-4.5.1l-4-14.6c-1.2-4.3-1.7-6.1-2.8-7.2 0 0 1.1.1 4.5.1s4.7-.1 4.7-.1c-.7.4-1 1.1-1 1.9.2 1.7.5 3.4 1 5.1l2.4 10c.2.8.3 1.9.4 2 0-.1.2-1.2.4-2l2.5-10.1c.5-1.7.8-3.4 1-5.1 0-.8-.3-1.5-1-1.9 0 0 1.3.1 4.1.1 2.6 0 3.6-.1 3.6-.1-1.1 1.1-1.7 3-2.9 7.3zm9.3 14.5c-2.9 0-4.2.1-4.2.1l.3-.5c.6-1.2.8-1.4.8-10.5 0-8.9-.1-9-.8-10.2l-.3-.5s1.2.1 4.1.1c3.1 0 4.2-.1 4.2-.1l-.3.5c-.6 1.2-.8 1.4-.8 10.5 0 8.9.1 9 .8 10.2l.3.5c0-.1-1.2-.1-4.1-.1zm24.5 0c-2.4 0-4.5.1-4.5.1.7-.4 1-1.2 1-1.9-.1-1.3-.4-2.6-.7-3.9l-.2-1h-6l-.2 1c-.4 1.3-.6 2.6-.8 3.9 0 .8.3 1.5 1 1.9 0 0-1.6-.1-3.8-.1s-3.6.1-3.6.1c1.1-1.1 1.7-3 2.8-7.2l3.5-12.8c.1-.4.2-.7.2-1.1 0-.2-.1-.5-.2-.6h10.3c-.1.2-.2.4-.2.6 0 .4.1.8.2 1.1l3.2 12.8c1.1 4.3 1.6 6.1 2.7 7.2-.3-.1-2.1-.1-4.7-.1zm-7.1-17.8c-.3-1.3-.4-2-.4-2.2 0 .1-.1.8-.4 2.2l-1.8 7.5h4.4l-1.8-7.5zm34.7-3.5c-.6 1.1-.8 1.4-.8 10.5V202s-.9-.1-3.1-.1-4.2.1-4.2.1l-6.2-13.6c-.4-.8-.7-1.6-.9-2.4v5.3c0 8.9.1 9 .8 10.2l.3.5s-1-.1-3.2-.1c-2.4 0-3.3.1-3.3.1l.3-.5c.6-1.1.8-1.4.8-10.5 0-8.9-.1-9-.8-10.2l-.3-.5s1.3.1 4.4.1c2.6 0 4-.1 4-.1l6.2 13.6c.4.8.7 1.6.9 2.5V191c0-8.9-.1-9-.8-10.2l-.3-.5s1 .1 3.2.1 3.3-.1 3.3-.1l-.3.4zM88.8 230.5c-2.9 0-4.2.1-4.2.1l.3-.5c.6-1.2.8-1.4.8-10.6 0-8.9-.1-9-.8-10.2l-.3-.5s1.2.1 4.2.1c3.2 0 4.2-.1 4.2-.1l-.3.5c-.6 1.2-.8 1.4-.8 10.5 0 8.9.1 9 .8 10.2l.3.5c0 .1-1.3 0-4.2 0zm16 .1c-1.2 0-3.9-.1-4.9-.1-2 0-3.1.1-3.1.1l.3-.5c.6-1.1.8-1.4.8-10.6 0-8.9-.1-9-.8-10.2l-.3-.5s1.1.1 3 .1c1.2 0 3.7-.1 5-.1 5.6 0 12.8.4 12.8 10.6.1 10.9-7.5 11.2-12.8 11.2zm.7-18.5c-.5 0-.9 0-1.4.1v14.9c.5.1 1 .1 1.5.1 4.6 0 5.5-3.4 5.5-7.6s-.9-7.5-5.6-7.5zm26.2 18.8c-7 0-10.5-3.8-10.5-11s3.6-11.4 10.4-11.4c7 0 10.5 3.8 10.5 11s-3.6 11.4-10.4 11.4zm0-18.8c-3 0-3.8 2.6-3.8 7.7s.8 7.6 3.7 7.6c2.9 0 3.8-2.6 3.8-7.7s-.7-7.6-3.7-7.6zm28.3 17.2l-.1 1.2h-14.3l.3-.5c.6-1.1.8-1.4.8-10.6 0-8.9-.1-9-.8-10.2l-.3-.5s1.2.1 4.3.1 4.2-.1 4.2-.1l-.3.6c-.7 1.2-.9 1.9-.9 8.1v9.6h1.9c3.8 0 4.3-.9 5.4-2.5.1-.1 0 1.2-.2 4.8z" role="presentation"/>
      <path id="Stars" class="fill-red-light" d="M64.4 218.7l-4.4-4.3 6 1.7 1.5-6 1.5 6 6-1.7-4.4 4.3L75 223l-6-1.7-1.5 6-1.5-6-6 1.7 4.4-4.3zm110 0l-4.5-4.3 6 1.7 1.5-6 1.5 6 6-1.7-4.4 4.3 4.4 4.3-6-1.7-1.5 6-1.5-6-6 1.7 4.5-4.3z" role="presentation"/>
    </symbol>
    <symbol id="icon-groupon" viewBox="0 0 512 83.1">
      <path d="M263.9 82.7c17.9 0 29.7-11.6 29.7-31.2v-50h-19.5v49.2c0 9.1-3.3 13.5-10.2 13.5-6.6 0-9.4-4.6-9.4-13.5V1.5h-19.7v50.1c0 19.9 10.8 31.1 29.1 31.1zm54.9-27h5.6c8.3 0 14.5-.6 19.7-3.5 7.9-4.8 12.7-13.3 12.7-23.7 0-10-3.7-17.5-10.8-22.4-5.4-3.7-11.8-4.4-20.2-4.4h-26.6v80h19.5v-26zm.2-36.4h5.2c8.7 0 12.9 2.7 12.9 9.4 0 7.3-4.8 9.8-14.3 9.8h-3.5V19.3h-.3zM465 37l29.7 44.5H512v-80h-19.5V46L463.2 1.5h-17.7v80H465V37zM188.7 82.9c11.2 0 21.6-4.4 29.5-12.5 7.5-7.7 11.6-18.1 11.6-29.5 0-11-4.4-21.2-12.5-29.1C209.7 4.2 199.5 0 188.9 0c-11.4 0-21.2 3.9-29.1 11.6s-12.1 17.9-12.1 28.9c0 11.8 3.7 21.6 11.4 29.7 7.8 8.6 17.7 12.7 29.6 12.7zm.2-63c11.2 0 20.6 9.4 20.6 21 0 13.1-9.4 22.2-20.8 22.2-11 0-21-9.8-21-22.2 0-11.8 9.3-21 21.2-21zm211.7 63c11.2 0 21.6-4.4 29.5-12.5 7.5-7.7 11.6-18.1 11.6-29.5 0-11-4.4-21.2-12.5-29.1C421.6 4.2 411.4 0 400.8 0c-11.4 0-21.2 3.9-29.1 11.6s-12.1 17.9-12.1 28.9c0 11.8 3.7 21.6 11.4 29.7 7.6 8.6 17.8 12.7 29.6 12.7zm.2-63c11.2 0 20.6 9.4 20.6 21 0 13.1-9.4 22.2-20.8 22.2-11 0-21-9.8-21-22.2 0-11.8 9.4-21 21.2-21zM11.2 70.4c7.9 8.3 17.9 12.7 29.7 12.7 13.5 0 26.4-6.6 34.1-17.9 4.6-6.6 6.9-14.3 6.9-23.5 0-1.7-.2-3.5-.2-5.2H36.2v16H59c-3.9 7.1-10.6 10.8-18.1 10.8-11 0-21-9.8-21-22.4 0-11.4 9.1-21 21-21 6.2 0 11.4 2.5 16.4 7.7h22.4C73.4 10.4 58.4 0 41.1 0c-11.4 0-21.2 3.9-29 11.8C4.2 19.5 0 29.7 0 40.7c0 11.9 3.7 21.6 11.2 29.7zm95.2-14.7l15.4 25.8h24.1L126.3 54c11.4-3.1 18.1-12.9 18.1-25.8 0-10-3.7-17.5-10.8-22.4-5.4-3.7-11.8-4.4-20.2-4.4H86.9v80h19.5V55.7zm0-36.4h5.4c8.7 0 12.9 2.7 12.9 9.4 0 7.3-4.8 9.8-14.3 9.8h-3.7V19.3h-.3z"/>
    </symbol>
  </defs>
</svg>